<svg width="205" height="181" viewBox="0 0 205 181" fill="none" xmlns="http://www.w3.org/2000/svg">
<path opacity="0.2" d="M20.4196 169.493H1.26218C0.591725 169.493 0.0482178 170.035 0.0482178 170.704V178.864C0.0482178 179.532 0.591725 180.074 1.26218 180.074H20.4196C21.09 180.074 21.6335 179.532 21.6335 178.864V170.704C21.6335 170.035 21.09 169.493 20.4196 169.493Z" fill="white"/>
<path d="M185.968 6.13721C185.968 6.13721 186.275 2.69641 187.087 2.15921C187.898 1.62201 192.863 0.316406 192.863 0.316406C192.863 0.316406 190.899 5.6204 189.706 6.2324C188.512 6.8444 185.968 6.13721 185.968 6.13721Z" fill="#5256E8"/>
<path opacity="0.5" d="M192.863 0.316406C192.802 0.479606 190.879 5.634 189.706 6.2324C188.919 6.505 188.073 6.56138 187.257 6.3956C186.823 6.33448 186.393 6.24821 185.968 6.1372C185.968 6.1372 186.282 2.68961 187.087 2.15921C187.891 1.62881 192.406 0.432002 192.836 0.323203L192.863 0.316406Z" fill="white"/>
<path opacity="0.2" d="M192.863 0.316406C192.802 0.479606 190.879 5.634 189.706 6.2324C188.919 6.505 188.073 6.56138 187.257 6.3956C186.118 5.634 188.519 4.80441 188.88 4.53921C189.242 4.27401 189.01 4.002 188.88 3.8048C188.751 3.6076 189.194 3.12481 189.692 2.96161C190.19 2.79841 190.374 2.3904 190.231 1.8124C190.088 1.2344 192.515 0.452403 192.822 0.323203L192.863 0.316406Z" fill="black"/>
<path d="M183.438 4.07011C184.563 4.07011 187.128 5.29411 187.973 5.35531C188.819 5.41651 193.02 2.53331 193.92 2.05731C194.821 1.58131 202.739 0.520508 202.739 0.520508C202.739 0.520508 197.487 5.87891 193.92 6.03531C193.92 6.03531 196.56 6.76971 197.33 6.57251C199.773 6.07037 202.263 5.82875 204.757 5.85171L199.874 7.43611L204.164 7.95971C202.179 8.31171 200.155 8.38723 198.149 8.18411C196.616 8.74413 195.04 9.17851 193.436 9.48291C192.335 9.7645 191.183 9.79269 190.069 9.56532C188.955 9.33796 187.907 8.861 187.005 8.17051C185.464 6.92611 180.383 5.51851 180.383 5.51851L182.115 4.90651C182.239 4.66053 182.427 4.45273 182.66 4.30539C182.893 4.15805 183.162 4.07671 183.438 4.07011Z" fill="#5256E8"/>
<path opacity="0.6" d="M199.874 7.43597L204.164 7.95957C202.177 8.31167 200.15 8.38719 198.142 8.18397C196.909 8.64209 195.644 9.00803 194.357 9.27877L193.436 9.48277C192.335 9.76436 191.183 9.79255 190.069 9.56518C188.955 9.33782 187.907 8.86086 187.005 8.17037C186.061 7.53843 185.036 7.03744 183.956 6.68117L183.383 6.47037L182.954 6.32076L182.04 6.02157C181.085 5.71557 180.383 5.51837 180.383 5.51837L182.115 4.89957C182.239 4.64366 182.433 4.42763 182.674 4.27614C182.915 4.12465 183.194 4.04378 183.479 4.04277C184.577 4.19466 185.649 4.4967 186.664 4.94037C187.103 5.12017 187.56 5.25019 188.028 5.32796C188.874 5.39597 193.075 2.50597 193.975 2.02997C195.46 1.60538 196.976 1.30066 198.51 1.11877C200.679 0.778768 202.793 0.493164 202.793 0.493164C202.793 0.493164 199.158 4.20597 195.878 5.53877C195.338 5.76876 194.769 5.92212 194.186 5.99437H193.982H194.023C194.364 6.08277 196.682 6.67437 197.392 6.51796C197.937 6.38197 198.517 6.26637 199.11 6.17797C200.997 5.91476 202.9 5.78749 204.805 5.79717L199.874 7.43597Z" fill="white"/>
<path opacity="0.2" d="M186.623 4.96791C186.097 4.91895 185.569 5.03803 185.116 5.30791C184.775 5.66151 184.468 6.41632 183.922 6.70872L183.349 6.49791L182.92 6.34831L182.006 6.04912C181.97 5.67352 181.996 5.2947 182.081 4.92711C182.205 4.6712 182.398 4.45518 182.64 4.30369C182.881 4.1522 183.16 4.07133 183.445 4.07031C184.54 4.22282 185.61 4.52485 186.623 4.96791Z" fill="black"/>
<path opacity="0.2" d="M202.739 0.520508C202.739 0.520508 199.104 4.23331 195.823 5.56611C195.273 5.76339 194.707 5.91575 194.132 6.02171H193.968C191.315 6.42971 191.008 6.02171 191.008 6.02171C191.008 6.02171 191.908 5.76331 191.997 5.76331C192.086 5.76331 191.622 5.47091 192.195 5.25331C192.768 5.03571 192.686 4.75011 192.686 4.75011C193.259 4.58415 193.813 4.35612 194.336 4.07011C194.391 3.89331 194.132 3.60771 194.855 3.46491C195.578 3.32211 194.855 2.94131 196.007 2.54011C197.16 2.13891 196.846 1.90771 196.846 1.90771C197.448 1.81628 198.01 1.55157 198.463 1.14611C200.624 0.806112 202.739 0.520508 202.739 0.520508Z" fill="black"/>
<path opacity="0.2" d="M199.874 7.43633L204.164 7.95993C202.177 8.31203 200.15 8.38755 198.142 8.18433C196.909 8.64245 195.644 9.0084 194.357 9.27913C193.866 9.02073 195.257 8.59913 195.864 8.27273C196.642 7.87153 196.546 7.95993 196.239 7.75593C195.932 7.55193 196.239 7.49753 197.167 7.29353C198.094 7.08953 197.849 6.89233 198.408 6.47753C198.618 6.34825 198.849 6.25622 199.09 6.20553C200.977 5.94232 202.88 5.81506 204.785 5.82473L199.874 7.43633Z" fill="black"/>
<path d="M182.081 4.92676L182.572 5.28036L182.279 6.13716L180.349 5.54556L182.081 4.92676Z" fill="#5256E8"/>
<path d="M127.419 41.3412C128.169 40.872 131.258 44.1904 132.718 44.6052C131.679 44.9615 130.553 44.9758 129.505 44.646C127.896 44.0816 126.627 41.8308 127.419 41.3412Z" fill="#5256E8"/>
<path opacity="0.4" d="M132.718 44.6047C131.679 44.9575 130.555 44.9741 129.505 44.6523C127.896 44.0879 126.627 41.8303 127.419 41.3407C127.596 41.2251 127.903 41.3407 128.292 41.5515C129.54 42.2791 131.606 44.2851 132.718 44.6047Z" fill="white"/>
<path opacity="0.2" d="M132.718 44.605C132.718 44.605 131.401 44.7478 131.217 44.5506C131.124 44.4498 131.01 44.3712 130.882 44.3206C130.755 44.27 130.618 44.2486 130.481 44.2582C130.112 44.2582 129.969 44.0746 130.037 43.7074C130.106 43.3402 129.574 43.5374 129.267 43.415C128.96 43.2926 129.301 43.177 129.308 42.9186C129.314 42.6602 128.68 42.633 128.626 42.4222C128.571 42.2114 128.837 42.2658 128.701 42.0482C128.564 41.8306 128.107 41.7558 128.271 41.5518C129.54 42.2794 131.606 44.2854 132.718 44.605Z" fill="black"/>
<path d="M124.984 40.702C125.741 40.532 127.63 41.0556 128.21 40.9944C128.789 40.9332 132.302 40.6952 132.302 40.6952C133.09 40.7808 133.887 40.7557 134.668 40.6204C136.25 39.972 137.896 39.4933 139.579 39.1924L136.489 40.8788L139.429 40.7088C138.135 41.2019 136.778 41.5131 135.398 41.6336C134.435 42.2005 133.43 42.6916 132.39 43.1024C131.685 43.4341 130.912 43.6004 130.132 43.5887C129.352 43.5769 128.585 43.3873 127.889 43.0344C126.689 42.3952 123.081 42.0892 123.081 42.0892L124.172 41.4568C124.223 41.2676 124.325 41.0964 124.469 40.9629C124.613 40.8294 124.791 40.7389 124.984 40.702Z" fill="#5256E8"/>
<path opacity="0.6" d="M136.496 40.8856L139.435 40.7088C138.141 41.2019 136.785 41.5131 135.405 41.6336L135.262 41.722C134.527 42.1388 133.768 42.5134 132.99 42.844C132.806 42.9324 132.609 43.014 132.397 43.1024C131.669 43.4164 130.885 43.5784 130.092 43.5784C129.326 43.5787 128.572 43.3919 127.896 43.0344C127.179 42.7307 126.424 42.5227 125.652 42.4156L125.236 42.3476L124.929 42.3068L124.247 42.2184L123.061 42.0892L124.152 41.4568C124.202 41.2685 124.303 41.0979 124.446 40.9645C124.588 40.8311 124.765 40.7401 124.957 40.702C125.714 40.6638 126.474 40.7302 127.214 40.8992C127.532 40.9653 127.857 40.9973 128.182 40.9944C128.762 40.9264 132.322 40.6884 132.274 40.6952H132.308C133.085 40.783 133.871 40.7578 134.641 40.6204C135.006 40.4544 135.379 40.3069 135.759 40.1784C136.998 39.762 138.265 39.4348 139.551 39.1992L136.496 40.8856Z" fill="white"/>
<path opacity="0.2" d="M127.248 40.899C126.887 40.9355 126.546 41.0828 126.273 41.3206C126.089 41.6062 125.98 42.1502 125.652 42.4154L125.236 42.3474L124.922 42.3066L124.275 42.2182C124.201 41.9712 124.169 41.7139 124.179 41.4566C124.23 41.269 124.333 41.0992 124.475 40.966C124.617 40.8328 124.793 40.7413 124.984 40.7018C125.744 40.6638 126.506 40.7302 127.248 40.899Z" fill="black"/>
<path opacity="0.2" d="M136.496 40.878L139.435 40.708C138.141 41.2011 136.785 41.5123 135.405 41.6328C134.632 42.0944 133.827 42.5011 132.997 42.85C132.629 42.7344 133.516 42.2652 133.884 41.9796C134.355 41.6056 134.286 41.6804 134.068 41.5784C133.85 41.4764 134.068 41.4016 134.634 41.15C135.2 40.8984 135.043 40.7896 135.364 40.47C135.49 40.3596 135.632 40.2701 135.787 40.2048C137.026 39.7884 138.293 39.4611 139.579 39.2256L136.496 40.878Z" fill="black"/>
<path d="M124.179 41.4561L124.554 41.6261L124.465 42.2381L123.088 42.0885L124.179 41.4561Z" fill="#5256E8"/>
<path opacity="0.3" d="M135.282 41.7221C134.547 42.1389 133.789 42.5135 133.011 42.8441C132.827 42.9325 132.629 43.0141 132.418 43.1025C131.69 43.4165 130.905 43.5785 130.112 43.5785C129.684 43.1415 129.33 42.6387 129.062 42.0893C129.062 42.0893 129.274 41.4569 130.372 41.0625C131.081 40.8109 133.611 41.3277 135.282 41.7221Z" fill="black"/>
<path d="M129.062 41.0216C130.426 40.3008 138.296 43.4356 141.529 43.5784C139.363 44.2533 137.09 44.523 134.825 44.374C131.19 44.0952 127.61 41.7764 129.062 41.0216Z" fill="#5256E8"/>
<path opacity="0.6" d="M141.529 43.5778C139.363 44.2527 137.09 44.5225 134.825 44.3734C131.224 44.0946 127.61 41.7758 129.062 41.021C129.693 40.8617 130.355 40.8758 130.979 41.0618C133.918 41.6126 139.06 43.469 141.529 43.5778Z" fill="white"/>
<path opacity="0.2" d="M141.529 43.5775C141.529 43.5775 138.801 44.0467 138.365 43.8631C137.835 43.6606 137.26 43.6042 136.701 43.6999C135.93 43.7679 135.555 43.5979 135.534 43.1559C135.514 42.7139 134.498 43.0675 133.795 42.9927C133.093 42.9179 133.795 42.7139 133.679 42.4147C133.563 42.1155 132.254 42.2243 132.09 41.9863C131.927 41.7483 132.459 41.7551 132.09 41.5375C131.722 41.3199 130.726 41.3403 130.979 41.0615C133.918 41.6123 139.06 43.4687 141.529 43.5775Z" fill="black"/>
</svg>
