<svg width="232" height="134" viewBox="0 0 232 134" fill="none" xmlns="http://www.w3.org/2000/svg">
<g id="freepik--Characters--inject-61">
<path id="Vector" d="M39.6479 48.2398C39.6479 49.5998 53.6221 51.905 53.8404 51.905C54.0586 51.905 56.7798 51.4358 56.7798 51.4358L61.7516 51.905C61.9033 51.7526 62.0278 51.5755 62.1198 51.3814C62.3189 50.9678 62.437 50.52 62.4677 50.0622C62.4677 49.9262 62.4677 49.7834 62.4677 49.627C62.4552 48.5402 62.304 47.4594 62.0176 46.4106C60.9964 46.5022 59.9673 46.388 58.9913 46.0749C58.0153 45.7619 57.1125 45.2563 56.3365 44.5882C55.6136 42.8066 54.6315 40.8686 53.5539 40.0322C53.5539 40.0322 43.7331 40.7122 41.6803 41.8954C39.6616 43.0854 39.6479 48.2398 39.6479 48.2398Z" fill="#5256E8"/>
<g id="Group" opacity="0.2">
<path id="Vector_2" d="M39.6479 48.2398C39.6479 49.5998 53.6221 51.905 53.8404 51.905C54.0586 51.905 56.7798 51.4358 56.7798 51.4358L61.7516 51.905C61.9033 51.7526 62.0278 51.5755 62.1198 51.3814C62.3189 50.9678 62.437 50.52 62.4677 50.0622C62.4677 49.9262 62.4677 49.7834 62.4677 49.627C62.4552 48.5402 62.304 47.4594 62.0176 46.4106C60.9964 46.5022 59.9673 46.388 58.9913 46.0749C58.0153 45.7619 57.1125 45.2563 56.3365 44.5882C55.6136 42.8066 54.6315 40.8686 53.5539 40.0322C53.5539 40.0322 43.7331 40.7122 41.6803 41.8954C39.6616 43.0854 39.6479 48.2398 39.6479 48.2398Z" fill="black"/>
</g>
<path id="Vector_3" d="M44.8857 48.4777C44.8857 48.4777 52.756 31.7769 83.446 7.07931C83.446 7.07931 149.423 -1.88989 192.662 7.18131C192.662 7.18131 210.059 31.0289 211.955 42.9629C213.851 54.8969 44.8857 48.4777 44.8857 48.4777Z" fill="#263238"/>
<g id="Group_2" opacity="0.7">
<path id="Vector_4" d="M168.416 6.44043C168.935 10.4048 170.012 20.836 170.258 40.9232C145.801 43.3984 127.033 46.404 127.033 46.404C132.721 24.7324 148.025 8.08603 148.025 8.08603C154.778 7.08928 161.59 6.53955 168.416 6.44043Z" fill="white"/>
<path id="Vector_5" d="M209.214 38.0599C205.36 38.2163 201.493 38.4135 197.661 38.6583L196.76 38.7127L195.069 38.8283L194.264 38.8759C187.083 39.3587 180.017 39.9639 173.327 40.6167C173.068 32.2799 172.44 16.8167 171.056 6.42629C178.007 6.374 184.951 6.91774 191.809 8.05149L192.034 8.09229C192.036 8.10582 192.036 8.11957 192.034 8.1331C192.225 8.3643 192.416 8.6091 192.607 8.8131L192.825 9.0987C202.735 21.7739 209.214 38.0599 209.214 38.0599Z" fill="white"/>
<path id="Vector_6" d="M48.8754 43.5C48.8754 43.5 73.6934 38.74 121.242 43.5C121.242 43.5 130.825 22.0324 143.469 8.09241C143.469 8.09241 112.717 3.45481 83.2619 8.09241C70.4411 18.5035 58.899 30.3884 48.8754 43.5Z" fill="white"/>
</g>
<path id="Vector_7" opacity="0.2" d="M134.514 6.03192C134.514 6.03192 107.916 4.61072 93.2395 5.93672C78.5629 7.26272 76.0122 13.2739 76.0122 13.2739C79.927 11.7239 83.9679 10.5113 88.0904 9.64952C88.0904 10.9415 88.145 12.8795 88.6769 13.6343C89.0793 14.1987 95.2514 13.4371 96.5131 12.7367C97.3656 12.2607 98.45 9.90792 99.0638 8.42552C112.09 7.40552 134.514 6.03192 134.514 6.03192ZM95.913 11.7711C95.4151 11.9751 90.798 12.8523 89.5704 12.6415C89.2157 12.5803 89.1543 10.8803 89.168 9.45232C89.8977 9.32312 90.6343 9.20752 91.364 9.11912C92.728 8.96272 94.9309 8.75872 97.6998 8.53432C97.086 9.97592 96.3494 11.5875 95.913 11.7711Z" fill="black"/>
<path id="Vector_8" opacity="0.2" d="M200.914 32.0147C200.035 30.3584 198.554 29.1004 196.774 28.4991C196.774 28.4991 197.988 20.7199 196.774 19.5163C195.56 18.3127 184.989 18.6391 182.616 19.5163C180.904 20.1419 179.663 24.3579 179.103 26.6631H145.385C145.665 24.2831 145.979 20.3459 145.147 19.5163C143.933 18.3059 133.355 18.6391 130.981 19.5163C128.608 20.3935 127.135 28.1999 127.135 28.1999C125.228 28.5664 123.438 29.3876 121.918 30.5935C119.19 32.6335 116.796 52.6799 116.796 52.6799H200.136C200.136 52.6799 202.203 34.6803 200.914 32.0147Z" fill="black"/>
<path id="Vector_9" d="M89.1748 51.4361C89.1748 51.4361 91.6027 31.4101 94.2898 29.3497C95.8112 28.1406 97.6037 27.317 99.5139 26.9493C99.5139 26.9493 100.987 19.1769 103.36 18.2997C105.734 17.4225 116.318 17.0961 117.519 18.2997C118.719 19.5033 117.519 27.2825 117.519 27.2825C119.297 27.8828 120.777 29.1413 121.652 30.7981C122.947 33.4705 120.881 51.4361 120.881 51.4361H89.1748Z" fill="#263238"/>
<path id="Vector_10" opacity="0.4" d="M89.1748 51.4361C89.1748 51.4361 91.6027 31.4101 94.2898 29.3497C95.8112 28.1406 97.6037 27.317 99.5139 26.9493C99.5139 26.9493 100.987 19.1769 103.36 18.2997C105.734 17.4225 116.318 17.0961 117.519 18.2997C118.719 19.5033 117.519 27.2825 117.519 27.2825C119.297 27.8828 120.777 29.1413 121.652 30.7981C122.947 33.4705 120.881 51.4361 120.881 51.4361H89.1748Z" fill="white"/>
<path id="Vector_11" d="M97.2429 38.4004C96.7234 38.1464 96.218 37.865 95.7288 37.5572C95.2582 37.258 94.7877 36.9588 94.3648 36.6188C93.4354 35.922 92.5744 35.1388 91.7937 34.2796C90.9234 33.314 90.2536 32.1862 89.8227 30.9612C89.7162 30.6178 89.6319 30.268 89.5704 29.914L89.4544 28.9892C89.4203 28.4248 89.393 27.8604 89.3999 27.33C89.4243 25.2631 89.5677 23.1993 89.8295 21.1488C90.0614 19.1088 90.3478 17.1232 90.7434 15.1104C90.7973 14.8269 90.9549 14.5736 91.1857 14.3995C91.4164 14.2255 91.7038 14.1432 91.992 14.1686C92.2802 14.194 92.5487 14.3254 92.7452 14.5371C92.9417 14.7489 93.0523 15.0259 93.0554 15.3144L93.1918 21.3052C93.26 23.284 93.2873 25.2832 93.4578 27.1668C93.4724 27.953 93.6152 28.7315 93.8806 29.472C94.209 30.1124 94.6449 30.692 95.1696 31.1856C95.7734 31.7884 96.4334 32.3326 97.1406 32.8108C97.5088 33.0624 97.8703 33.3208 98.259 33.552C98.6478 33.7832 99.057 34.0348 99.3639 34.232L99.4525 34.2864C99.9958 34.579 100.402 35.0735 100.582 35.6625C100.762 36.2514 100.701 36.8874 100.414 37.4325C100.127 37.9776 99.6358 38.3877 99.0472 38.574C98.4586 38.7603 97.8201 38.7077 97.2701 38.4276L97.2429 38.4004Z" fill="#E4897B"/>
<path id="Vector_12" d="M94.358 12.03L94.7263 13.1248C94.7938 13.3278 94.8122 13.5439 94.7802 13.7554C94.7483 13.9669 94.6667 14.1678 94.5422 14.342L93.3418 15.9604C93.1077 16.2824 92.8 16.5441 92.4442 16.7239C92.0884 16.9036 91.6947 16.9962 91.2958 16.994H90.798C90.0546 15.2192 90.5661 12.7644 90.5661 12.7644L90.6343 12.0504C90.6447 11.9029 90.6842 11.7589 90.7505 11.6267C90.8169 11.4945 90.9088 11.3767 91.0209 11.28C91.1331 11.1833 91.2634 11.1097 91.4042 11.0634C91.545 11.017 91.6936 10.9989 91.8414 11.01L93.2668 11.1256C93.5172 11.1542 93.7538 11.255 93.9476 11.4156C94.1414 11.5763 94.284 11.7898 94.358 12.03Z" fill="#E4897B"/>
<path id="Vector_13" d="M100.312 33.2865C100.312 33.2865 94.8968 30.2469 94.2898 29.3493C93.6829 28.4517 93.4101 21.5361 93.4101 21.5361L89.1748 23.4401C89.1748 23.4401 88.4587 29.5601 89.1748 31.9605C89.8909 34.3609 95.3128 40.0389 95.3128 40.0389L100.312 33.2865Z" fill="white"/>
<path id="Vector_14" d="M101.055 17.184C97.809 19.8224 98.1909 27.384 101.84 32.3956C101.84 32.3956 109.621 33.0756 113.945 31.1172C118.269 29.1588 113.488 16.8984 108.919 15.926C106.232 15.3426 103.424 15.7919 101.055 17.184Z" fill="#263238"/>
<path id="Vector_15" d="M101.239 25.0718C100.053 23.0318 98.8728 17.517 103.817 15.8102C109.955 13.6886 112.752 17.6054 113.283 21.495C113.815 25.3846 111.619 28.295 107.541 28.0298C103.463 27.7646 102.065 26.4862 101.239 25.0718Z" fill="#263238"/>
<path id="Vector_16" d="M94.6172 40.6171C94.017 43.4595 95.0741 50.1371 95.2446 55.2099L109.778 56.8827C109.884 54.3303 110.3 51.8002 111.019 49.3483C111.565 47.2131 112.342 44.5883 113.413 41.4127C113.57 40.9367 113.727 40.4539 113.904 39.9507C114.094 39.4479 114.169 38.9092 114.124 38.3739C114.078 37.8386 113.914 37.32 113.642 36.8562C113.37 36.3923 112.998 35.9947 112.553 35.6925C112.107 35.3903 111.6 35.1909 111.067 35.1091C110.46 35.0139 109.805 34.9323 109.144 34.8643C106.559 34.6059 105.12 34.0551 102.808 34.1435C102.044 34.1435 100.503 33.4635 99.7322 33.5519C96.9837 33.7831 95.1832 37.9515 94.6172 40.6171Z" fill="#5256E8"/>
<path id="Vector_17" d="M109.069 26.9492C108.339 29.1728 107.371 33.2596 108.755 34.844C108.755 34.844 106.634 34.4088 101.935 36.9724C100.721 35.0208 101.73 34.47 101.73 34.47C104.329 34.0076 104.506 32.1444 104.288 30.39L109.069 26.9492Z" fill="#E4897B"/>
<path id="Vector_18" opacity="0.2" d="M107.118 28.3496L104.288 30.3896C104.345 30.804 104.366 31.2228 104.349 31.6408C105.331 31.5524 106.784 30.5732 107.016 29.6008C107.13 29.1941 107.165 28.7694 107.118 28.3496Z" fill="black"/>
<path id="Vector_19" d="M110.044 21.7607C110.092 25.4735 110.194 27.0375 108.462 29.0707C105.863 32.1307 101.287 31.3827 100.128 27.7651C99.0843 24.5079 99.1798 18.9931 102.692 17.2523C103.465 16.8653 104.324 16.6815 105.188 16.7185C106.052 16.7555 106.892 17.012 107.628 17.4637C108.365 17.9153 108.973 18.5472 109.396 19.2992C109.819 20.0513 110.042 20.8986 110.044 21.7607Z" fill="#E4897B"/>
<path id="Vector_20" d="M106.886 18.2926C105.857 19.5846 108.209 23.6442 110.058 24.331C113.652 23.1546 109.962 14.4506 106.886 18.2926Z" fill="#263238"/>
<path id="Vector_21" d="M102.487 16.5653C101.123 17.1705 99.8345 19.7341 99.664 20.6861C101.71 20.8425 106.941 18.4965 106.941 18.4965C106.941 18.4965 110.631 19.1765 108.646 17.5105C106.661 15.8445 102.487 16.5653 102.487 16.5653Z" fill="#263238"/>
<path id="Vector_22" d="M103.858 23.2703C103.858 23.5695 103.736 23.8279 103.545 23.8415C103.354 23.8551 103.169 23.6239 103.142 23.3247C103.115 23.0255 103.265 22.7671 103.463 22.7535C103.661 22.7399 103.838 22.9711 103.858 23.2703Z" fill="#263238"/>
<path id="Vector_23" d="M100.448 23.5281C100.448 23.8273 100.332 24.0789 100.135 24.0993C99.9368 24.1197 99.7595 23.8817 99.739 23.5825C99.7185 23.2833 99.8549 23.0249 100.053 23.0113C100.251 22.9977 100.428 23.2289 100.448 23.5281Z" fill="#263238"/>
<path id="Vector_24" d="M100.141 23.0192L99.4048 22.8623C99.4048 22.8623 99.814 23.401 100.141 23.0192Z" fill="#263238"/>
<path id="Vector_25" d="M101.894 23.9023C101.677 24.6075 101.365 25.28 100.967 25.9015C101.129 25.9995 101.31 26.0612 101.499 26.0823C101.687 26.1034 101.878 26.0835 102.058 26.0239L101.894 23.9023Z" fill="#DE5753"/>
<path id="Vector_26" d="M103.79 27.0784C103.644 27.1097 103.496 27.1302 103.347 27.1396C103.335 27.1405 103.323 27.1392 103.312 27.1356C103.301 27.132 103.291 27.1262 103.282 27.1186C103.273 27.111 103.266 27.1018 103.261 27.0914C103.255 27.081 103.252 27.0696 103.251 27.058C103.25 27.0464 103.252 27.0347 103.255 27.0236C103.259 27.0125 103.265 27.0023 103.272 26.9934C103.28 26.9846 103.289 26.9773 103.3 26.9721C103.31 26.9668 103.321 26.9637 103.333 26.9628C103.709 26.9447 104.075 26.8378 104.401 26.651C104.727 26.4642 105.004 26.2028 105.209 25.8884C105.22 25.8677 105.24 25.8524 105.263 25.8461C105.286 25.8397 105.311 25.8427 105.331 25.8544C105.352 25.8661 105.367 25.8856 105.374 25.9086C105.38 25.9315 105.377 25.9561 105.365 25.9768C105.188 26.2547 104.958 26.4951 104.688 26.6841C104.418 26.8732 104.112 27.0071 103.79 27.0784Z" fill="#263238"/>
<path id="Vector_27" d="M111.299 25.072C111.096 25.7619 110.628 26.3437 109.996 26.6904C109.157 27.1392 108.53 26.4388 108.591 25.5412C108.653 24.6436 109.144 23.5012 110.064 23.44C110.267 23.4271 110.47 23.4646 110.655 23.5492C110.839 23.6338 111 23.7627 111.123 23.9245C111.245 24.0863 111.325 24.2758 111.356 24.4761C111.387 24.6763 111.367 24.8811 111.299 25.072Z" fill="#E4897B"/>
<path id="Vector_28" d="M105.529 22.3929C105.492 22.4006 105.453 22.3969 105.418 22.3824C105.382 22.3678 105.352 22.3431 105.331 22.3113C105.152 22.0844 104.927 21.8971 104.671 21.7613C104.415 21.6255 104.134 21.5442 103.845 21.5225C103.798 21.5225 103.752 21.5039 103.719 21.4708C103.686 21.4376 103.667 21.3926 103.667 21.3457C103.667 21.2989 103.686 21.2539 103.719 21.2207C103.752 21.1876 103.798 21.1689 103.845 21.1689C104.19 21.195 104.527 21.2939 104.831 21.4592C105.136 21.6245 105.401 21.8523 105.611 22.1277C105.623 22.1478 105.631 22.1701 105.635 22.1933C105.639 22.2165 105.638 22.2402 105.632 22.263C105.626 22.2858 105.616 22.3072 105.602 22.326C105.588 22.3448 105.57 22.3606 105.55 22.3725L105.529 22.3929Z" fill="#263238"/>
<path id="Vector_29" d="M99.664 21.9438C99.6339 21.9514 99.6023 21.9511 99.5723 21.9427C99.5424 21.9343 99.5152 21.9183 99.4935 21.8962C99.4613 21.8621 99.4435 21.8171 99.4435 21.7704C99.4435 21.7236 99.4613 21.6786 99.4935 21.6446C99.6917 21.445 99.9354 21.2963 100.204 21.211C100.472 21.1258 100.757 21.1065 101.035 21.155C101.06 21.1572 101.085 21.1648 101.107 21.1773C101.129 21.1899 101.148 21.2071 101.163 21.2277C101.178 21.2484 101.189 21.272 101.194 21.2969C101.198 21.3219 101.198 21.3476 101.192 21.3724C101.186 21.3971 101.175 21.4203 101.159 21.4403C101.143 21.4603 101.123 21.4767 101.101 21.4883C101.078 21.5 101.053 21.5066 101.028 21.5077C101.002 21.5089 100.977 21.5045 100.953 21.495C100.733 21.4638 100.508 21.4845 100.297 21.5553C100.087 21.6262 99.8954 21.7452 99.739 21.903C99.7167 21.9211 99.6913 21.9349 99.664 21.9438Z" fill="#263238"/>
<path id="Vector_30" d="M103.551 22.7604L102.808 22.6035C102.808 22.6035 103.224 23.1491 103.551 22.7604Z" fill="#263238"/>
<path id="Vector_31" opacity="0.2" d="M105.42 43.3439C106.354 46.0639 108.735 48.1379 111.019 49.3483C111.565 47.2131 112.342 44.5883 113.413 41.4127C111.974 39.4135 109.969 38.0127 107.418 38.3799C107.418 38.4003 104.472 40.5627 105.42 43.3439Z" fill="black"/>
<path id="Vector_32" d="M110.631 55.7675C110.453 57.5627 112.867 63.2475 112.867 63.2475H110.944C110.944 63.2475 109.764 59.7115 108.578 55.4955C108.066 53.7071 107.562 51.7895 107.146 49.9671C106.948 49.1171 106.77 48.2875 106.62 47.5055C106.47 46.7235 106.327 45.8123 106.245 45.0779C106.043 43.2514 106.202 41.4029 106.716 39.6379C107.2 37.9063 108.026 36.2882 109.144 34.8779H108.762C112.397 34.8371 114.354 36.0951 114.607 38.3527C114.528 39.9102 114.276 41.4541 113.856 42.9563C112.806 47.4443 111.033 53.6391 110.685 55.4683C110.662 55.5671 110.644 55.6669 110.631 55.7675Z" fill="white"/>
<path id="Vector_33" d="M100.967 33.5517C100.967 33.5517 96.6086 40.6305 95.5788 43.2009C94.549 45.7713 95.1355 53.1289 95.1355 53.1289C95.1355 53.1289 93.1713 44.2889 94.4535 39.8893C95.7356 35.4897 97.9521 31.9605 100.967 33.5517Z" fill="white"/>
<path id="Vector_34" opacity="0.2" d="M113.856 42.9223C112.806 47.4103 111.033 53.6051 110.685 55.4343C109.949 55.4683 109.219 55.4887 108.578 55.4955C108.066 53.7071 107.562 51.7895 107.146 49.9671C106.948 49.1171 106.77 48.2875 106.62 47.5055C107.521 47.1519 108.755 46.6555 109.232 46.4107C110.01 46.0231 109.744 38.7539 109.744 38.7539C111.441 39.7805 112.855 41.2133 113.856 42.9223Z" fill="black"/>
<path id="Vector_35" d="M95.9948 52.6804L97.0383 53.1768C97.2304 53.2705 97.4425 53.3163 97.6563 53.3104C97.8701 53.3045 98.0793 53.247 98.2659 53.1428L100.046 52.1636C100.396 51.9692 100.694 51.6945 100.916 51.3621C101.137 51.0298 101.276 50.6495 101.321 50.2528L101.376 49.7564C99.7049 48.8112 97.202 49.022 97.202 49.022H96.479C96.3312 49.0147 96.1834 49.0365 96.0441 49.0862C95.9047 49.136 95.7766 49.2126 95.667 49.3118C95.5574 49.4109 95.4685 49.5307 95.4054 49.6642C95.3423 49.7976 95.3062 49.9422 95.2992 50.0896L95.2446 51.5108C95.2442 51.7569 95.3147 51.998 95.4477 52.2053C95.5807 52.4126 95.7706 52.5775 95.9948 52.6804Z" fill="#E4897B"/>
<path id="Vector_36" d="M114.579 38.2306C115.061 40.256 115.362 42.3199 115.48 44.3982C115.552 45.5141 115.518 46.6344 115.377 47.7438C115.294 48.4285 115.117 49.0988 114.852 49.7362C114.658 50.1782 114.398 50.5885 114.081 50.9534C113.883 51.1854 113.654 51.389 113.399 51.5586C113.263 51.6493 113.119 51.7289 112.97 51.7966L112.724 51.8986C111.594 52.2902 110.408 52.5013 109.212 52.5242C108.161 52.5623 107.109 52.5351 106.061 52.4426C104.032 52.268 102.021 51.9315 100.046 51.4362C99.7704 51.3683 99.5292 51.2027 99.3675 50.9703C99.2057 50.7379 99.1344 50.4546 99.167 50.1736C99.1997 49.8926 99.3339 49.6331 99.5446 49.4436C99.7554 49.2542 100.028 49.1479 100.312 49.1446H100.353C101.301 49.1446 102.283 49.1446 103.238 49.0834C104.192 49.0222 105.154 49.0222 106.095 48.9474C107.036 48.8726 107.957 48.7842 108.823 48.6482C109.589 48.5461 110.337 48.3402 111.047 48.0362L111.135 47.9886L111.026 48.043C110.967 48.0744 110.912 48.1133 110.862 48.1586C110.801 48.213 110.815 48.1926 110.862 48.1178C110.935 47.835 110.978 47.5456 110.992 47.2542C111.024 46.4123 110.997 45.5693 110.91 44.7314C110.828 43.8406 110.692 42.9226 110.542 42.0114C110.392 41.1002 110.221 40.1482 110.058 39.2914V39.2166C109.945 38.6159 110.072 37.9951 110.413 37.487C110.753 36.9789 111.28 36.6238 111.879 36.4977C112.479 36.3715 113.104 36.4843 113.622 36.812C114.139 37.1396 114.507 37.6561 114.648 38.251L114.579 38.2306Z" fill="#E4897B"/>
<path id="Vector_37" d="M111.776 35.9654C113.686 35.333 115.186 37.475 115.8 41.2354C116.414 44.9958 116.523 50.8506 114.436 51.9386C112.349 53.0266 108.53 52.8362 108.53 52.8362L106.32 48.5589C106.32 48.5589 110.242 47.879 110.603 47.335C110.965 46.791 110.139 41.589 109.833 40.025C109.526 38.461 109.703 36.6522 111.776 35.9654Z" fill="white"/>
<g id="freepik--group--inject-61">
<path id="Vector_38" d="M132.966 51.4361C132.966 51.4361 135.394 31.4101 138.081 29.3497C139.602 28.1406 141.395 27.317 143.305 26.9493C143.305 26.9493 144.778 19.1769 147.152 18.2997C149.525 17.4225 160.11 17.0961 161.31 18.2997C162.51 19.5033 161.31 27.2825 161.31 27.2825C163.089 27.8828 164.568 29.1413 165.443 30.7981C166.739 33.4705 164.672 51.4361 164.672 51.4361H132.966Z" fill="#263238"/>
<path id="Vector_39" opacity="0.4" d="M132.966 51.4361C132.966 51.4361 135.394 31.4101 138.081 29.3497C139.602 28.1406 141.395 27.317 143.305 26.9493C143.305 26.9493 144.778 19.1769 147.152 18.2997C149.525 17.4225 160.11 17.0961 161.31 18.2997C162.51 19.5033 161.31 27.2825 161.31 27.2825C163.089 27.8828 164.568 29.1413 165.443 30.7981C166.739 33.4705 164.672 51.4361 164.672 51.4361H132.966Z" fill="white"/>
<path id="Vector_40" d="M142.098 35.0003C141.241 37.2089 140.174 39.331 138.913 41.3379C137.426 43.6023 136.062 45.5811 133.505 47.1111C129.126 49.3347 123.07 47.5803 118.733 46.0571L119.415 43.2487C122.518 43.4391 125.744 43.6703 128.765 43.2487C130.811 42.9223 131.152 42.3851 132.373 40.8415C134.056 38.3192 135.493 35.6413 136.662 32.8447L142.118 34.9935L142.098 35.0003Z" fill="#FFB573"/>
<path id="Vector_41" d="M139.472 30.417C137.801 30.7978 136.096 32.9466 131.07 41.7662C131.07 41.7662 130.293 42.827 126.937 43.1874L126.685 48.4166C126.685 48.4166 131.391 48.709 132.557 48.0698C133.723 47.4306 141.416 37.4346 141.416 37.4346L139.472 30.417Z" fill="#263238"/>
<path id="Vector_42" opacity="0.2" d="M126.937 43.16L126.685 48.3824C126.685 48.3824 130.456 48.6204 132.086 48.2124C132.25 48.1772 132.408 48.12 132.557 48.0424C133.239 47.6752 136.083 44.1732 138.367 41.2832C140.025 39.182 141.382 37.4073 141.382 37.4073L139.472 30.3896C137.808 30.7704 136.096 32.9193 131.07 41.7389C131.07 41.8 130.293 42.8268 126.937 43.16Z" fill="white"/>
<path id="Vector_43" opacity="0.2" d="M132.086 48.2397C132.25 48.2045 132.408 48.1473 132.557 48.0697C133.239 47.7025 136.083 44.2005 138.367 41.3105C138.046 39.5016 137.629 37.7108 137.119 35.9453C137.119 35.9453 132.55 43.0173 132.086 48.2397Z" fill="black"/>
<path id="Vector_44" d="M120.52 43.616L117 41.9092L116.925 46.846C116.925 46.846 120.24 47.628 120.84 45.9076L120.52 43.616Z" fill="#FFB573"/>
<path id="Vector_45" d="M113.863 42.5756L113.993 46.6624L116.925 46.846L117 41.9092L113.863 42.5756Z" fill="#FFB573"/>
<path id="Vector_46" d="M126.937 42.9629L125.007 43.3233L125.15 48.4437L126.985 48.9673L126.937 42.9629Z" fill="#263238"/>
<path id="Vector_47" d="M156.209 60.8403L135.128 58.6099C134.874 58.5807 134.64 58.4616 134.467 58.2744C134.294 58.0871 134.195 57.8442 134.187 57.5899C133.75 36.9723 139.472 30.4511 139.472 30.4511C141.423 30.11 143.398 29.9213 145.378 29.8867C148.255 29.9628 151.124 30.2057 153.972 30.6143C155.922 30.8674 157.85 31.2652 159.741 31.8043C160.744 32.3551 161.296 37.0063 158.752 51.0211C158.07 54.6931 157.709 57.8891 157.532 59.7591C157.517 59.9172 157.471 60.0708 157.397 60.2111C157.322 60.3513 157.22 60.4753 157.097 60.5759C156.974 60.6766 156.832 60.7518 156.68 60.7971C156.527 60.8425 156.367 60.8572 156.209 60.8403Z" fill="#263238"/>
<path id="Vector_48" d="M141.662 37.9313L137.597 37.5029L136.772 42.3037L138.804 43.9425L141.109 43.0993L141.662 37.9313Z" fill="#263238"/>
<path id="Vector_49" opacity="0.2" d="M134.187 57.5559C134.194 57.8099 134.293 58.0527 134.466 58.2391C134.639 58.4255 134.874 58.5428 135.128 58.5691L156.209 60.8403C156.367 60.8572 156.527 60.8425 156.68 60.7971C156.832 60.7518 156.974 60.6766 157.097 60.5759C157.22 60.4753 157.322 60.3513 157.397 60.2111C157.471 60.0708 157.517 59.9172 157.532 59.7591C157.709 57.8891 158.091 54.6931 158.752 51.0211C159.121 49.0083 159.423 47.1814 159.659 45.5403C160.145 42.5534 160.45 39.5401 160.573 36.5167C160.642 33.4227 160.253 32.0899 159.748 31.8043C157.855 31.2658 155.924 30.8681 153.972 30.6143C151.123 30.2088 148.254 29.9659 145.378 29.8867C143.398 29.9247 141.424 30.1134 139.472 30.4511C139.472 30.4511 133.75 36.9383 134.187 57.5559Z" fill="white"/>
<path id="Vector_50" d="M153.808 30.3494L146.749 31.9474L146.674 29.9686C147.067 29.5443 147.334 29.0191 147.443 28.452C147.553 27.8849 147.501 27.2986 147.295 26.759L152.396 21.999C151.987 24.685 152.089 28.3842 153.808 30.3494Z" fill="#FFB573"/>
<path id="Vector_51" d="M149.143 33.2189L147.745 33.6269L146.504 34.2389C146.504 34.2389 144.001 42.9565 143.639 50.5045L142.214 51.4361L140.952 50.1849C140.952 50.1849 144.137 36.5849 145.044 33.9669L144.846 33.2869L144.355 31.8793L145.583 31.4033L147.384 31.9949L148.666 32.1309L149.143 33.2189Z" fill="white"/>
<path id="Vector_52" opacity="0.2" d="M150.316 23.957L147.302 26.7586C147.452 27.2521 147.561 27.757 147.629 28.2682C148.802 28.0506 150.357 26.6838 150.446 25.4462C150.495 24.9461 150.451 24.4412 150.316 23.957Z" fill="black"/>
<path id="Vector_53" d="M153.515 29.0704C151.452 30.1423 149.28 30.9904 147.036 31.6C146.905 30.6283 147.01 29.6395 147.343 28.7168L144.178 29.8932C144.178 29.8932 143.68 32.1984 144.24 33.4768L146.62 32.1168L148.891 34.388C148.891 34.388 153.781 33.0824 154.776 30.7024L153.515 29.0704Z" fill="#263238"/>
<path id="Vector_54" opacity="0.2" d="M137.522 37.9312L135.633 43.6364C147.37 53.1564 157.457 49.3892 159.66 45.5064C160.145 42.5195 160.45 39.5062 160.573 36.4828C158.186 36.1156 156.018 34.3136 155.117 34.844C153.603 35.7688 148.297 38.38 145.774 38.7132C143.735 38.992 137.522 37.9312 137.522 37.9312Z" fill="black"/>
<path id="Vector_55" d="M142.371 14.6551C141.75 16.0831 141.689 19.1363 143.858 18.3679C146.026 17.5995 143.462 12.2071 142.371 14.6551Z" fill="#263238"/>
<path id="Vector_56" d="M152.819 17.7489C152.655 21.5637 152.751 23.8077 150.848 25.7729C147.997 28.7445 143.237 27.0377 142.255 23.2365C141.375 19.8365 141.791 14.1585 145.515 12.6149C146.339 12.2721 147.236 12.1433 148.124 12.2404C149.011 12.3376 149.859 12.6576 150.589 13.1704C151.319 13.6833 151.906 14.3723 152.296 15.173C152.686 15.9737 152.866 16.86 152.819 17.7489Z" fill="#FFB573"/>
<path id="Vector_57" d="M155.54 14.1519L151.448 12.9619L150.766 15.3079L151.039 15.2331C151.039 15.2331 150.459 18.7487 152.151 20.4147C155.329 19.0207 156.925 15.8791 155.54 14.1519Z" fill="#263238"/>
<path id="Vector_58" d="M154.374 20.8975C154.238 21.3514 154.013 21.7739 153.712 22.1404C153.412 22.5069 153.041 22.8102 152.621 23.0327C151.489 23.6175 150.65 22.6655 150.739 21.4619C150.814 20.3807 151.496 18.7419 152.744 18.6875C153.016 18.6743 153.287 18.7284 153.533 18.8451C153.779 18.9618 153.993 19.1374 154.154 19.3562C154.315 19.5751 154.42 19.8304 154.458 20.0993C154.497 20.3682 154.468 20.6424 154.374 20.8975Z" fill="#FFB573"/>
<path id="Vector_59" d="M147.029 18.8643C147.029 19.1703 146.879 19.4219 146.674 19.4287C146.47 19.4355 146.299 19.1771 146.292 18.8643C146.285 18.5515 146.449 18.3067 146.654 18.2999C146.858 18.2931 147.022 18.5515 147.029 18.8643Z" fill="#263238"/>
<path id="Vector_60" d="M143.51 18.8916C143.51 19.1976 143.353 19.456 143.148 19.456C142.944 19.456 142.773 19.2044 142.766 18.8984C142.76 18.5924 142.923 18.334 143.128 18.334C143.332 18.334 143.503 18.5788 143.51 18.8916Z" fill="#263238"/>
<path id="Vector_61" d="M144.628 19.0342C144.261 19.9543 143.767 20.8193 143.162 21.6046C143.379 21.7469 143.623 21.8416 143.88 21.8827C144.136 21.9237 144.398 21.91 144.649 21.8426L144.628 19.0342Z" fill="#ED893E"/>
<path id="Vector_62" d="M146.34 23.0185C146.206 23.0289 146.072 23.0289 145.938 23.0185C145.925 23.0194 145.913 23.0179 145.902 23.0138C145.89 23.0098 145.88 23.0034 145.871 22.9951C145.862 22.9868 145.854 22.9768 145.85 22.9656C145.845 22.9544 145.842 22.9423 145.842 22.9301C145.842 22.9067 145.852 22.8842 145.868 22.8676C145.885 22.851 145.907 22.8417 145.931 22.8417C146.318 22.847 146.7 22.7611 147.048 22.5909C147.395 22.4208 147.697 22.1712 147.929 21.8625C147.946 21.8467 147.968 21.8379 147.991 21.8379C148.013 21.8379 148.035 21.8467 148.052 21.8625C148.061 21.8701 148.068 21.8796 148.072 21.8901C148.077 21.9007 148.08 21.9121 148.08 21.9237C148.08 21.9353 148.077 21.9467 148.072 21.9573C148.068 21.9678 148.061 21.9772 148.052 21.9849C147.853 22.2648 147.598 22.5009 147.303 22.6786C147.009 22.8564 146.681 22.9721 146.34 23.0185Z" fill="#263238"/>
<path id="Vector_63" d="M148.1 17.7213C148.067 17.7257 148.033 17.7218 148.002 17.7099C147.971 17.6981 147.944 17.6786 147.922 17.6533C147.786 17.4679 147.609 17.3166 147.404 17.2115C147.199 17.1064 146.973 17.0505 146.742 17.0481C146.699 17.0449 146.658 17.0265 146.627 16.9961C146.596 16.9658 146.577 16.9254 146.573 16.8823C146.569 16.8391 146.58 16.7959 146.605 16.7603C146.63 16.7247 146.666 16.699 146.708 16.6877C147.001 16.6832 147.29 16.748 147.552 16.8769C147.814 17.0058 148.041 17.195 148.216 17.4289C148.23 17.4475 148.241 17.4689 148.247 17.4917C148.254 17.5146 148.255 17.5385 148.252 17.5619C148.249 17.5854 148.241 17.608 148.229 17.6283C148.217 17.6487 148.201 17.6665 148.181 17.6805L148.1 17.7213Z" fill="#263238"/>
<path id="Vector_64" d="M141.968 17.6944C141.933 17.7043 141.895 17.7043 141.859 17.6944C141.816 17.6725 141.783 17.6349 141.766 17.5895C141.75 17.544 141.752 17.494 141.771 17.4496C141.887 17.1849 142.067 16.9524 142.294 16.7723C142.521 16.5922 142.788 16.47 143.073 16.416C143.118 16.4165 143.16 16.4328 143.193 16.4622C143.227 16.4915 143.248 16.5317 143.254 16.5756C143.26 16.6194 143.249 16.6638 143.225 16.7007C143.201 16.7376 143.164 16.7645 143.121 16.7764C142.896 16.8159 142.684 16.9113 142.505 17.0539C142.326 17.1965 142.186 17.3817 142.098 17.5924C142.087 17.619 142.069 17.6423 142.046 17.6601C142.024 17.6779 141.997 17.6897 141.968 17.6944Z" fill="#263238"/>
<path id="Vector_65" d="M152.096 16.4296C152.005 16.4765 151.909 16.513 151.81 16.5384C151.535 16.6263 151.243 16.6431 150.96 16.5872C150.677 16.5312 150.413 16.4045 150.193 16.2188C149.286 15.464 149.675 12.472 146.388 13.2472C146.084 13.093 145.743 13.0295 145.404 13.0645C145.065 13.0995 144.744 13.2314 144.478 13.4444C143.503 14.1788 143.203 17.6672 141.709 16.8104C140.216 15.9536 140.618 15.532 140.618 15.532C140.618 15.532 141 15.9264 141.3 15.7632C141.112 15.5068 141.008 15.1988 141.002 14.8812C140.995 14.5635 141.088 14.2518 141.266 13.9884C141.266 13.9884 141.546 14.5392 141.832 14.512C141.893 13.0895 142.391 11.72 143.257 10.5884C144.751 8.49399 150.33 10.3912 150.33 10.3912C150.33 10.3912 151.346 9.37118 153.74 10.8264C156.134 12.2816 156.536 15.668 155.786 16.9464" fill="#263238"/>
<path id="Vector_66" d="M121.024 54.8831C119.835 54.8782 118.656 54.6665 117.539 54.2576C114.91 53.2629 112.747 51.3285 111.47 48.8309C110.193 46.3334 109.894 43.4514 110.631 40.746C110.982 39.4444 111.604 38.2309 112.455 37.1839C113.307 36.1369 114.369 35.2797 115.574 34.6677C116.778 34.0557 118.098 33.7024 119.448 33.6308C120.798 33.5592 122.148 33.7708 123.411 34.2519C126.04 35.2466 128.203 37.181 129.48 39.6786C130.757 42.1761 131.057 45.0581 130.32 47.7635C129.963 49.0633 129.34 50.2749 128.489 51.3215C127.637 52.368 126.577 53.2266 125.375 53.8427C124.028 54.5283 122.537 54.8849 121.024 54.8831ZM119.933 35.5847C118.727 35.5806 117.537 35.8627 116.462 36.4076C115.501 36.9035 114.654 37.5929 113.974 38.4321C113.294 39.2714 112.797 40.2422 112.513 41.2831C111.914 43.5158 112.167 45.8906 113.222 47.948C114.278 50.0055 116.062 51.5995 118.228 52.4215C119.237 52.8126 120.318 52.9871 121.4 52.9335C122.481 52.8799 123.539 52.5994 124.504 52.1104C125.47 51.6214 126.321 50.9349 127.002 50.0956C127.684 49.2564 128.18 48.2833 128.458 47.2399C129.062 45.0107 128.814 42.6373 127.763 40.5796C126.713 38.5218 124.933 36.9261 122.77 36.1015C121.863 35.7621 120.902 35.587 119.933 35.5847Z" fill="#263238"/>
<path id="Vector_67" d="M158.712 41.216C155.789 43.0798 152.658 44.5953 149.382 45.7312C147.233 46.486 145.078 45.9148 143.06 45.3844C138.225 43.8513 133.588 41.7585 129.242 39.1488L130.484 36.5376C132.761 37.3264 135.087 38.1016 137.379 38.8156C140.529 39.7268 144.049 40.9712 147.158 40.9032C147.595 40.8352 147.227 40.9032 147.97 40.5632L149.505 39.7472C151.551 38.6252 153.631 37.4012 155.643 36.2588L158.712 41.216Z" fill="#FFB573"/>
<path id="Vector_68" d="M130.579 36.4831L126.746 35.6807L127.892 40.4883C127.892 40.4883 131.302 40.4339 131.459 38.6251L130.579 36.4831Z" fill="#FFB573"/>
<path id="Vector_69" d="M123.875 37.1019L125 41.0323L127.892 40.4951L126.746 35.6875L123.875 37.1019Z" fill="#FFB573"/>
<path id="Vector_70" d="M159.748 31.7705C164.229 34.7965 161.378 39.6857 159.748 42.0929C158.118 44.5001 147.609 47.6281 145.801 47.4377C143.994 47.2473 135.633 43.2829 135.633 43.2829L137.74 38.3189C137.74 38.3189 143.496 39.9441 145.378 40.1617C147.261 40.3793 159.748 31.7705 159.748 31.7705Z" fill="#263238"/>
<path id="Vector_71" opacity="0.2" d="M159.748 31.7705C164.229 34.7965 161.378 39.6857 159.748 42.0929C158.118 44.5001 147.609 47.6281 145.801 47.4377C143.994 47.2473 135.633 43.2829 135.633 43.2829L137.74 38.3189C137.74 38.3189 143.496 39.9441 145.378 40.1617C147.261 40.3793 159.748 31.7705 159.748 31.7705Z" fill="white"/>
<path id="Vector_72" d="M138.108 38.0604L136.131 44.1736L134.514 43.1332L136.26 37.6592L138.108 38.0604Z" fill="#263238"/>
<path id="Vector_73" d="M132.086 52.3877C129.986 47.2265 122.743 40.1885 120.492 38.3185C118.242 36.4485 112.261 35.7413 101.84 36.0473C98.3885 36.1999 95.0169 37.1298 91.9778 38.7673C83.9439 38.8285 70.7267 38.9985 65.3253 39.4473C61.3356 39.7941 50.8601 40.9025 49.953 44.7241C49.0459 48.5457 54.8634 57.6849 55.409 57.6849H85.1851C85.2082 58.1725 85.3047 58.6539 85.4716 59.1129C85.9012 59.4665 119.149 61.9349 119.149 61.9349C119.149 61.9349 134.187 57.5557 132.086 52.3877Z" fill="#263238"/>
<path id="Vector_74" opacity="0.3" d="M132.086 52.3877C129.986 47.2265 122.743 40.1885 120.492 38.3185C118.242 36.4485 112.261 35.7413 101.84 36.0473C98.3885 36.1999 95.0169 37.1298 91.9778 38.7673C83.9439 38.8285 70.7267 38.9985 65.3253 39.4473C61.3356 39.7941 50.8601 40.9025 49.953 44.7241C49.0459 48.5457 54.8634 57.6849 55.409 57.6849H85.1851C85.2082 58.1725 85.3047 58.6539 85.4716 59.1129C85.9012 59.4665 119.149 61.9349 119.149 61.9349C119.149 61.9349 134.187 57.5557 132.086 52.3877Z" fill="white"/>
</g>
<g id="Group_3" opacity="0.3">
<path id="Vector_75" d="M209.214 38.0541C205.36 38.2105 201.493 38.4145 197.661 38.6525L196.76 38.7137L195.069 38.8225L194.264 38.8769C188.945 39.2373 183.693 39.6589 178.578 40.1213C183.673 27.3509 187.165 16.1445 187.444 15.2673C184.416 22.6249 177.473 29.8533 177.473 29.8533C181.013 22.5712 183.96 15.017 186.285 7.26367C189.258 7.60367 191.175 7.94366 191.795 8.05246L192.02 8.09326C192.022 8.10679 192.022 8.12054 192.02 8.13407C192.211 8.36527 192.402 8.59194 192.593 8.81407L192.812 9.09967C202.735 21.7749 209.214 38.0541 209.214 38.0541Z" fill="white"/>
<path id="Vector_76" d="M79.8996 26.9356C89.9796 21.0604 99.5139 16.1644 100.36 15.7156C89.5977 21.7472 77.2807 33.212 68.9876 41.6236C55.6682 42.188 48.855 43.5004 48.855 43.5004C58.8819 30.3895 70.4262 18.5047 83.2482 8.0928C93.0066 6.63907 102.865 5.95695 112.731 6.0528C95.456 13.5804 80.4725 26.446 79.8996 26.9356Z" fill="white"/>
</g>
<path id="Vector_77" d="M142.528 83.0557H133.437C123.329 83.0557 115.139 94.3437 115.139 108.27C115.139 122.196 123.323 133.484 133.437 133.484H142.528C152.635 133.484 160.826 122.196 160.826 108.27C160.826 94.3437 152.635 83.0557 142.528 83.0557Z" fill="#263238"/>
<path id="Vector_78" opacity="0.1" d="M145.392 131.696C153.837 131.696 160.683 121.208 160.683 108.27C160.683 95.3319 153.837 84.8438 145.392 84.8438C136.947 84.8438 130.102 95.3319 130.102 108.27C130.102 121.208 136.947 131.696 145.392 131.696Z" fill="white"/>
<path id="Vector_79" opacity="0.6" d="M146.715 95.6084C142.153 95.6084 138.456 101.28 138.456 108.27C138.456 115.26 142.153 120.932 146.715 120.932C151.278 120.932 154.981 115.26 154.981 108.27C154.981 101.28 151.278 95.6084 146.715 95.6084Z" fill="#263238"/>
<path id="Vector_80" d="M37.8611 83.0557H28.77C18.656 83.0557 10.472 94.3437 10.472 108.27C10.472 122.196 18.656 133.484 28.77 133.484H37.8611C47.9683 133.484 56.166 122.196 56.166 108.27C56.166 94.3437 47.982 83.0557 37.8611 83.0557Z" fill="#263238"/>
<path id="Vector_81" opacity="0.1" d="M40.7256 131.696C49.1702 131.696 56.016 121.208 56.016 108.27C56.016 95.3319 49.1702 84.8438 40.7256 84.8438C32.2809 84.8438 25.4351 95.3319 25.4351 108.27C25.4351 121.208 32.2809 131.696 40.7256 131.696Z" fill="white"/>
<path id="Vector_82" opacity="0.6" d="M42.0554 120.932C46.6167 120.932 50.3144 115.263 50.3144 108.27C50.3144 101.277 46.6167 95.6084 42.0554 95.6084C37.4941 95.6084 33.7964 101.277 33.7964 108.27C33.7964 115.263 37.4941 120.932 42.0554 120.932Z" fill="#263238"/>
<path id="Vector_83" d="M225.152 80.9339L225.282 106.883C225.289 107.87 225.1 108.848 224.726 109.762C224.352 110.676 223.801 111.507 223.104 112.207C222.406 112.907 221.577 113.463 220.663 113.843C219.749 114.222 218.769 114.417 217.78 114.417H151.435C148.674 117.215 145.384 119.437 141.754 120.955C138.125 122.472 134.228 123.255 130.293 123.257H87.8313L83.0027 116.036H73.3388L72.0566 117.246C68.4956 120.59 63.786 122.449 58.894 122.441C56.3276 122.436 53.7884 121.916 51.4276 120.913C49.0667 119.909 46.9325 118.443 45.1517 116.6L44.572 115.995H22.4888C20.7223 115.995 19.0122 115.374 17.6598 114.241C16.3074 113.108 15.3995 111.535 15.096 109.8L9.19666 76.0039L225.152 80.9339Z" fill="#263238"/>
<path id="Vector_84" d="M230.533 76.0246L226.993 73.427C223.774 53.1426 219.164 44.187 219.164 44.187L211.171 37.387C208.095 26.3234 196.958 7.75259 191.107 5.61059H191.072C190.124 5.36579 168.737 0.850586 135.292 0.850586C93.4305 0.850586 81.4137 7.84779 81.4137 7.84779C64.7865 20.047 45.7587 43.6974 45.7587 43.6974C35.8043 47.3617 26.6155 52.8302 18.656 59.827C17.7626 60.6226 16.876 61.459 16.0099 62.3226C15.2665 63.057 14.5299 63.8186 13.8206 64.6074C13.275 65.2058 12.7363 65.8178 12.2111 66.4434C10.3544 68.6923 8.75334 71.1393 7.43712 73.7398C6.56564 75.4439 5.78258 77.1915 5.09104 78.9758C4.83188 79.6558 4.60682 80.2746 4.40904 80.8798C4.27946 81.2538 1.16954 84.8442 1.16954 84.8442C-0.637765 85.8234 1.75605 100.369 5.00919 107.883C5.22858 108.382 5.58948 108.806 6.0475 109.103C6.50552 109.4 7.04068 109.557 7.58715 109.555H94.4944C94.6444 91.9298 105.12 77.711 118.03 77.711C130.94 77.711 141.402 91.9298 141.559 109.555H181.443C181.593 91.9298 192.068 77.711 204.978 77.711C207.549 77.7194 210.088 78.2831 212.419 79.3634C221.176 83.355 227.641 94.201 228.426 107.243C228.426 107.454 228.426 107.679 228.467 107.889C228.697 107.649 228.9 107.385 229.073 107.101C229.373 106.951 229.638 106.74 229.852 106.483C230.066 106.225 230.223 105.926 230.315 105.605C233.663 96.547 230.533 76.0246 230.533 76.0246ZM48.8686 43.4934C58.899 30.3874 70.443 18.5053 83.2619 8.09258C112.717 3.44818 143.469 8.09258 143.469 8.09258C130.825 22.0326 121.242 43.4934 121.242 43.4934C73.6934 38.713 48.8686 43.4934 48.8686 43.4934ZM127.033 46.4106C132.721 24.739 148.025 8.09258 148.025 8.09258C154.778 7.09584 161.59 6.5461 168.416 6.44698C168.935 10.4114 170.012 20.8426 170.258 40.9298C145.801 43.405 127.033 46.4106 127.033 46.4106ZM197.661 38.6586L196.76 38.713L195.069 38.8286L194.264 38.8762C187.083 39.359 180.017 39.9642 173.327 40.617C173.068 32.2802 172.44 16.817 171.056 6.42658C178.007 6.3743 184.951 6.91803 191.809 8.05178L192.034 8.09258C192.036 8.10611 192.036 8.11986 192.034 8.13339C192.225 8.36459 192.416 8.60939 192.607 8.81339L192.825 9.09899C202.707 21.7402 209.193 38.0262 209.193 38.0262C205.36 38.2166 201.493 38.4002 197.661 38.6586Z" fill="#5256E8"/>
<path id="Vector_85" d="M118.378 83.0557H109.28C99.1729 83.0557 90.9821 94.3437 90.9821 108.27C90.9821 122.196 99.1661 133.484 109.28 133.484H118.378C128.478 133.484 136.676 122.196 136.676 108.27C136.676 94.3437 128.458 83.0557 118.378 83.0557Z" fill="#263238"/>
<path id="Vector_86" opacity="0.2" d="M121.242 131.696C129.687 131.696 136.533 121.208 136.533 108.27C136.533 95.3319 129.687 84.8438 121.242 84.8438C112.798 84.8438 105.952 95.3319 105.952 108.27C105.952 121.208 112.798 131.696 121.242 131.696Z" fill="white"/>
<path id="Vector_87" opacity="0.6" d="M122.566 95.6084C118.003 95.6084 114.3 101.28 114.3 108.27C114.3 115.26 118.003 120.932 122.566 120.932C127.128 120.932 130.825 115.26 130.825 108.27C130.825 101.28 127.128 95.6084 122.566 95.6084Z" fill="white"/>
<path id="Vector_88" d="M203.717 83.0557H194.612C184.505 83.0557 176.314 94.3437 176.314 108.27C176.314 122.196 184.498 133.484 194.612 133.484H203.703C213.81 133.484 222.001 122.196 222.001 108.27C222.001 94.3437 213.824 83.0557 203.717 83.0557Z" fill="#263238"/>
<path id="Vector_89" opacity="0.2" d="M206.581 131.696C215.026 131.696 221.872 121.208 221.872 108.27C221.872 95.3319 215.026 84.8438 206.581 84.8438C198.136 84.8438 191.291 95.3319 191.291 108.27C191.291 121.208 198.136 131.696 206.581 131.696Z" fill="white"/>
<path id="Vector_90" opacity="0.6" d="M207.904 120.932C212.466 120.932 216.163 115.263 216.163 108.27C216.163 101.277 212.466 95.6084 207.904 95.6084C203.343 95.6084 199.645 101.277 199.645 108.27C199.645 115.263 203.343 120.932 207.904 120.932Z" fill="white"/>
<path id="Vector_91" d="M17.6262 110.548L20.2724 97.7981C20.3961 97.1777 20.7327 96.6198 21.2243 96.2201C21.716 95.8205 22.332 95.6042 22.9663 95.6085H41.9191C42.7961 95.6072 43.6557 95.8529 44.3989 96.3173C45.1422 96.7816 45.7388 97.4458 46.1202 98.2332L52.1218 110.548H17.6262Z" fill="#263238"/>
<path id="Vector_92" opacity="0.7" d="M101.519 72.1619L88.6769 80.2267L61.3969 86.0815H16.2485L4.33398 80.8795C4.5454 80.2743 4.77046 79.6419 5.01598 78.9755C5.70753 77.1913 6.49059 75.4436 7.36207 73.7395C7.40299 73.6579 7.4439 73.5763 7.49164 73.4947C8.78975 70.9834 10.3561 68.6191 12.1633 66.4431C12.6885 65.8175 13.2273 65.2055 13.7729 64.6071C19.2766 65.9671 21.118 72.1619 21.118 72.1619L22.1274 81.7907L22.4206 84.5855H53.3698L55.3067 81.8043L62.0448 72.1619C62.0448 72.1619 71.3337 67.2659 79.1835 65.7291C85.4374 64.5051 97.3588 64.3691 97.3588 64.3691C100.837 65.7223 101.519 72.1619 101.519 72.1619Z" fill="white"/>
<path id="Vector_93" d="M83.712 74.3516C83.4051 76.7724 81.5978 78.5336 79.6746 78.2956C77.7513 78.0576 76.4419 75.8884 76.7556 73.4676C77.0693 71.0468 78.8698 69.2788 80.793 69.5236C82.7163 69.7684 84.0189 71.9308 83.712 74.3516Z" fill="white"/>
<path id="Vector_94" d="M73.3103 79.2587C74.8101 76.0692 73.9746 72.5246 71.4441 71.3417C68.9137 70.1587 65.6464 71.7853 64.1466 74.9749C62.6468 78.1644 63.4823 81.709 66.0127 82.8919C68.5432 84.0749 71.8104 82.4483 73.3103 79.2587Z" fill="white"/>
<path id="Vector_95" d="M20.366 79.2578C21.8658 76.0682 21.0303 72.5236 18.4999 71.3407C15.9694 70.1577 12.7022 71.7844 11.2023 74.9739C9.70249 78.1634 10.538 81.708 13.0685 82.891C15.5989 84.0739 18.8661 82.4473 20.366 79.2578Z" fill="white"/>
<path id="Vector_96" d="M13.882 70.5371C13.0982 70.8576 12.3901 71.3376 11.803 71.9464C11.2158 72.5553 10.7625 73.2796 10.472 74.073C10.1447 74.8858 9.97798 75.754 9.98098 76.6299C9.88737 76.6295 9.79472 76.611 9.70817 76.5755C8.63061 76.1403 8.4874 73.9643 9.39446 71.6863C10.3015 69.4083 11.9042 67.9327 12.9818 68.3611C13.5819 68.6059 13.882 69.4423 13.882 70.5371Z" fill="white"/>
<path id="Vector_97" d="M75.8826 94.9418L77.499 95.3294C77.8136 95.4043 78.0879 95.5955 78.2665 95.8644C78.445 96.1333 78.5144 96.4598 78.4606 96.7778L77.0352 105.359C76.9851 105.657 76.8308 105.926 76.5997 106.121C76.3686 106.315 76.0758 106.421 75.7735 106.42H62.986C62.6472 106.42 62.3221 106.286 62.0818 106.048C61.8415 105.81 61.7057 105.486 61.7039 105.149C61.7034 104.851 61.8074 104.562 61.998 104.332C62.1885 104.102 62.4536 103.946 62.7473 103.891C64.7933 103.51 69.6355 101.925 74.5323 95.4314C74.6826 95.2247 74.8915 95.0675 75.1322 94.9803C75.3729 94.893 75.6343 94.8796 75.8826 94.9418Z" fill="#263238"/>
<path id="Vector_98" d="M75.8826 94.9422L65.6867 94.9082L75.8826 97.4922V94.9422Z" fill="#263238"/>
<path id="Vector_99" d="M10.472 94.9082L2.8609 95.5882L6.66646 107.08H12.6271L11.3245 104.163C8.6898 102.637 6.63859 100.28 5.49342 97.465L10.472 94.9082Z" fill="#263238"/>
<path id="Vector_100" opacity="0.7" d="M76.0259 103.266C76.0259 104.7 75.0711 105.863 73.8912 105.863C72.7114 105.863 71.7634 104.7 71.7634 103.266C71.7634 101.831 72.7182 100.668 73.8912 100.668C75.0643 100.668 76.0259 101.831 76.0259 103.266Z" fill="white"/>
<path id="Vector_101" opacity="0.7" d="M8.73289 103.327C9.12162 104.687 8.91703 105.972 8.27595 106.149C7.63487 106.325 6.80283 105.353 6.41409 103.966C6.02535 102.579 6.22995 101.321 6.87103 101.144C7.51211 100.967 8.35097 101.939 8.73289 103.327Z" fill="white"/>
<path id="Vector_102" opacity="0.7" d="M38.5636 76.0244H33.3395C33.2386 76.0249 33.1392 76.0491 33.0495 76.095C32.9597 76.141 32.8821 76.2074 32.8229 76.2889C32.7638 76.3704 32.7248 76.4647 32.7091 76.5641C32.6933 76.6634 32.7014 76.7651 32.7325 76.8608L34.2534 81.5868C34.2888 81.698 34.354 81.7974 34.4421 81.8743C34.5301 81.9512 34.6375 82.0025 34.7528 82.0228C34.868 82.0432 34.9866 82.0316 35.0957 81.9895C35.2048 81.9474 35.3003 81.8764 35.3718 81.784L39.0683 77.058C39.1425 76.9637 39.1886 76.8504 39.2013 76.7312C39.214 76.612 39.1928 76.4916 39.1402 76.3838C39.0876 76.276 39.0056 76.1852 38.9036 76.1216C38.8017 76.0581 38.6839 76.0244 38.5636 76.0244ZM36.9746 77.16L35.1263 79.5264C35.0903 79.5726 35.0423 79.6079 34.9876 79.6288C34.9328 79.6496 34.8733 79.655 34.8157 79.6445C34.758 79.634 34.7044 79.6079 34.6605 79.5691C34.6167 79.5303 34.5844 79.4803 34.5671 79.4244L33.8033 77.0648C33.7885 77.0165 33.7851 76.9655 33.7935 76.9157C33.8019 76.8659 33.8217 76.8187 33.8514 76.7778C33.8812 76.737 33.92 76.7036 33.9649 76.6802C34.0098 76.6568 34.0595 76.6442 34.1102 76.6432H36.7222C36.7823 76.6432 36.8412 76.66 36.8922 76.6918C36.9432 76.7236 36.9842 76.769 37.0105 76.8229C37.0368 76.8768 37.0474 76.937 37.041 76.9966C37.0347 77.0562 37.0116 77.1129 36.9746 77.16Z" fill="white"/>
<path id="Vector_103" opacity="0.2" d="M101.519 72.1618L88.6769 80.2266L61.3969 86.0814H16.2485L4.33398 80.8794C4.5454 80.2742 4.77046 79.6418 5.01598 78.9754C5.73862 77.1052 6.56279 75.2756 7.48483 73.4946L6.55731 79.1998C6.47788 79.6864 6.56186 80.1855 6.79618 80.6195C7.03051 81.0536 7.40206 81.3984 7.85311 81.6002L14.6731 84.6398C15.217 84.8852 15.8138 84.9913 16.4092 84.9485C17.0047 84.9058 17.58 84.7155 18.0831 84.395L22.1751 81.7702L22.4684 84.565H53.4175L55.3544 81.7838L59.6646 84.667C60.0227 84.9083 60.4258 85.0754 60.8499 85.1583C61.274 85.2412 61.7105 85.2384 62.1335 85.1498L86.399 80.0226C87.1352 79.866 87.817 79.519 88.376 79.0165C88.9351 78.514 89.3517 77.8737 89.584 77.1598L90.9957 72.597C91.1881 71.9718 91.1847 71.303 90.9861 70.6798C90.7875 70.0565 90.4031 69.5085 89.8841 69.1086L86.3922 66.3886C92.6462 65.1646 97.3792 64.3486 97.3792 64.3486C100.837 65.7222 101.519 72.1618 101.519 72.1618Z" fill="black"/>
<path id="Vector_104" d="M22.1547 81.791H23.4436L23.696 83.8378H52.1218L53.5403 81.791L55.334 81.8046L53.3971 84.5858H22.4479L22.1547 81.791Z" fill="#263238"/>
<path id="Vector_105" d="M20.9885 86.0816L22.1547 85.252H53.5403L54.2564 86.0816H20.9885Z" fill="#263238"/>
<path id="Vector_106" opacity="0.2" d="M230.533 76.0246L226.993 73.427C226.123 67.7845 224.956 62.1917 223.495 56.6718C221.408 48.913 219.553 44.9486 219.219 44.2618C219.204 44.2262 219.185 44.1921 219.164 44.1598L211.171 37.3598C208.095 26.2894 196.958 7.72544 191.106 5.58344H191.072C159.666 1.57144 146.742 6.40623 146.742 6.40623C130.299 26.3982 123.554 46.3902 123.554 46.3902C114.285 51.5157 105.533 57.5207 97.4202 64.3218C98.1022 70.5914 93.676 77.0854 93.676 77.0854L88.711 80.2066L89.2362 87.4214C86.1331 97.2066 81.2295 109.528 81.2295 109.528H94.5285C94.6785 91.9094 105.154 77.6906 118.064 77.6906C130.975 77.6906 141.436 91.9094 141.593 109.528H181.477C181.627 91.9094 192.102 77.6906 205.012 77.6906C207.583 77.6967 210.121 78.2581 212.453 79.3362C221.21 83.3278 227.675 94.1806 228.46 107.216C228.46 107.434 228.46 107.651 228.501 107.896C228.731 107.654 228.935 107.387 229.108 107.101C229.408 106.953 229.674 106.745 229.887 106.488C230.101 106.231 230.258 105.933 230.349 105.611C233.663 96.547 230.533 76.0246 230.533 76.0246ZM127.033 46.4106C132.72 24.739 148.025 8.09263 148.025 8.09263C154.778 7.09726 161.59 6.54527 168.416 6.44023C168.935 10.4114 170.012 20.8426 170.258 40.9298C145.801 43.405 127.033 46.4106 127.033 46.4106ZM197.661 38.6518L196.76 38.713L195.069 38.8218L194.264 38.8762C187.083 39.359 180.017 39.9642 173.327 40.617C173.068 32.2802 172.44 16.7762 171.056 6.42663C178.008 6.37046 184.951 6.91422 191.809 8.05183L192.034 8.09263C192.036 8.10616 192.036 8.11991 192.034 8.13344C192.225 8.36464 192.416 8.5913 192.607 8.81344L192.825 9.09904C202.707 21.7402 209.193 38.0194 209.193 38.0194C205.36 38.2098 201.493 38.4002 197.661 38.6518Z" fill="black"/>
<path id="Vector_107" d="M197.661 38.6586L196.76 38.713C194.639 21.4002 192.88 12.4514 191.809 8.05176L192.034 8.09256C192.036 8.10609 192.036 8.11983 192.034 8.13336C192.225 8.36456 192.416 8.60936 192.607 8.81336C195.294 20.5978 196.856 31.9538 197.661 38.6586Z" fill="#263238"/>
<path id="Vector_108" d="M86.8015 109.549H93.0281C94.3584 109.553 95.6509 109.108 96.6958 108.287C97.7407 107.466 98.4766 106.317 98.7842 105.027C100.401 98.2269 105.134 85.7489 118.378 83.0561C132.332 80.2205 136.942 96.7921 138.367 105.061C138.582 106.315 139.234 107.454 140.208 108.275C141.183 109.097 142.418 109.548 143.694 109.549H145.187C145.187 109.549 145.187 69.1705 115.998 72.3393C95.4015 74.5833 89.584 105.177 89.584 105.177L86.8015 109.549Z" fill="#5256E8"/>
<path id="Vector_109" opacity="0.2" d="M86.8015 109.549H93.0281C94.3584 109.553 95.6509 109.108 96.6958 108.287C97.7407 107.466 98.4766 106.317 98.7842 105.027C100.401 98.2269 105.134 85.7489 118.378 83.0561C132.332 80.2205 136.942 96.7921 138.367 105.061C138.582 106.315 139.234 107.454 140.208 108.275C141.183 109.097 142.418 109.548 143.694 109.549H145.187C145.187 109.549 145.187 69.1705 115.998 72.3393C95.4015 74.5833 89.584 105.177 89.584 105.177L86.8015 109.549Z" fill="black"/>
<path id="Vector_110" d="M172.14 109.549H178.374C179.703 109.551 180.994 109.106 182.037 108.285C183.081 107.464 183.816 106.316 184.123 105.027C185.746 98.2269 190.479 85.7489 203.717 83.0561C217.67 80.2205 222.288 96.7921 223.713 105.061C223.924 106.317 224.576 107.457 225.551 108.278C226.526 109.1 227.762 109.55 229.039 109.549H230.533C230.533 109.549 230.533 69.1705 201.337 72.3393C180.747 74.5833 174.923 105.177 174.923 105.177L172.14 109.549Z" fill="#5256E8"/>
<path id="Vector_111" opacity="0.2" d="M172.14 109.549H178.374C179.703 109.551 180.994 109.106 182.037 108.285C183.081 107.464 183.816 106.316 184.123 105.027C185.746 98.2269 190.479 85.7489 203.717 83.0561C217.67 80.2205 222.288 96.7921 223.713 105.061C223.924 106.317 224.576 107.457 225.551 108.278C226.526 109.1 227.762 109.55 229.039 109.549H230.533C230.533 109.549 230.533 69.1705 201.337 72.3393C180.747 74.5833 174.923 105.177 174.923 105.177L172.14 109.549Z" fill="black"/>
<path id="Vector_112" opacity="0.2" d="M120.417 72.203C124.025 71.9106 127.66 73.1074 130.763 74.991C133.858 76.965 136.498 79.5698 138.511 82.6342C140.527 85.6754 142.149 88.9587 143.339 92.4058C144.514 95.8361 145.426 99.3505 146.067 102.919L145.167 102.171L160.737 102.103L176.307 102.157L175.4 102.878C176.332 99.2621 177.588 95.7369 179.151 92.3446C180.697 88.947 182.621 85.7331 184.887 82.7634C187.146 79.7788 189.944 77.2419 193.139 75.2834C194.751 74.3398 196.467 73.5868 198.254 73.0394C200.031 72.5368 201.864 72.2558 203.71 72.203C201.886 72.4148 200.091 72.8229 198.356 73.4202C196.651 74.0581 195.026 74.891 193.514 75.9022C190.544 77.987 187.966 80.5765 185.896 83.5522C183.801 86.5146 182.036 89.6953 180.631 93.0382C179.182 96.3533 178.03 99.7893 177.187 103.306L177.016 104.027H176.287L160.717 104.081L145.147 104.013H144.417L144.294 103.265C143.718 99.7723 142.89 96.3248 141.818 92.9498C140.76 89.5847 139.299 86.3587 137.467 83.3414C135.64 80.3207 133.227 77.6944 130.368 75.6166C127.468 73.5113 124.002 72.3222 120.417 72.203Z" fill="black"/>
<path id="Vector_113" d="M89.2021 87.4418C89.2021 87.4418 108.387 69.6666 127.033 73.7058C127.033 73.7058 118.405 69.2994 101.519 72.1622L86.8015 81.791L89.2021 87.4418Z" fill="#5256E8"/>
<path id="Vector_114" d="M128.458 51.4357C128.458 51.4357 202.871 42.6569 219.164 44.1597L212.74 38.7197C212.74 38.7197 137.665 44.0713 128.458 51.4357Z" fill="#5256E8"/>
<path id="Vector_115" opacity="0.7" d="M223.495 56.672C219.921 50.0488 216.17 48.1788 216.17 48.1788L211.942 42.0996C214.522 42.1283 217.043 42.8774 219.219 44.262C219.553 44.9488 221.408 48.9132 223.495 56.672Z" fill="white"/>
<path id="Vector_116" d="M149.416 48.2398C149.416 49.5998 135.449 51.905 135.223 51.905C134.998 51.905 132.284 51.4358 132.284 51.4358L127.319 51.905C127.167 51.7526 127.043 51.5755 126.951 51.3814C126.752 50.9678 126.634 50.52 126.603 50.0622C126.596 49.9173 126.596 49.772 126.603 49.627C126.619 48.5405 126.77 47.4601 127.053 46.4106C128.075 46.5027 129.106 46.3889 130.083 46.0758C131.06 45.7627 131.964 45.2568 132.741 44.5882C133.464 42.8066 134.446 40.8686 135.524 40.0322C135.524 40.0322 145.344 40.7122 147.397 41.8954C149.409 43.0854 149.416 48.2398 149.416 48.2398Z" fill="#263238"/>
<path id="Vector_117" d="M149.416 48.2398L148.884 47.7842C148.884 47.7842 133.58 50.8782 133.457 47.7842C133.334 44.6902 135.503 40.0322 135.503 40.0322C135.503 40.0322 145.385 40.7122 147.397 41.909C149.409 43.1058 149.416 48.2398 149.416 48.2398Z" fill="#5256E8"/>
<path id="Vector_118" opacity="0.2" d="M149.416 48.2399C149.416 49.5999 135.449 51.9051 135.223 51.9051C134.998 51.9051 132.284 51.4359 132.284 51.4359L127.319 51.9051C127.167 51.7527 127.043 51.5756 126.951 51.3815C126.752 50.9678 126.634 50.5201 126.603 50.0623L132.284 48.9607L133.505 47.4443C137.61 47.394 141.709 47.1033 145.781 46.5739C146.025 46.5376 146.247 46.4142 146.406 46.2265C146.566 46.0388 146.651 45.7998 146.647 45.5539C146.647 44.7311 146.647 43.5139 146.647 42.9563C146.732 42.5294 146.975 42.1504 147.329 41.8955C149.409 43.0855 149.416 48.2399 149.416 48.2399Z" fill="black"/>
</g>
</svg>
