<svg width="51" height="30" viewBox="0 0 51 30" fill="none" xmlns="http://www.w3.org/2000/svg">
<path id="Vector" d="M0.357651 24.0448C0.357651 22.5605 0.949012 21.137 2.00163 20.0875C3.05424 19.038 4.4819 18.4484 5.97052 18.4484C6.51762 18.4479 7.06195 18.5257 7.58686 18.6796C7.33111 16.9923 7.44443 15.2698 7.91905 13.6303C8.39367 11.9908 9.21835 10.473 10.3365 9.18112C11.4547 7.88924 12.8399 6.8538 14.3971 6.14583C15.9543 5.43786 17.6467 5.07412 19.3582 5.07955C20.0926 5.08179 20.8253 5.15006 21.5474 5.28355C22.7227 3.36136 24.4934 1.87272 26.5921 1.04249C28.6908 0.212251 31.0035 0.085518 33.1808 0.681429C35.3581 1.27734 37.2818 2.56352 38.6613 4.34571C40.0408 6.1279 40.8011 8.30927 40.8275 10.5603H40.998C43.5394 10.5603 45.9766 11.5669 47.7736 13.3587C49.5706 15.1504 50.5801 17.5805 50.5801 20.1144C50.5801 22.6482 49.5706 25.0783 47.7736 26.87C45.9766 28.6618 43.5394 29.6684 40.998 29.6684H5.81365C4.34822 29.6258 2.9575 29.0139 1.93819 27.9633C0.91888 26.9127 0.351692 25.5065 0.357651 24.0448Z" fill="#F0F0F0"/>
</svg>
