<svg width="262" height="155" viewBox="0 0 262 155" fill="none" xmlns="http://www.w3.org/2000/svg">
<path d="M261.114 154.509V112.485H258.325V97.0013H254.253V43.1589H248.361V36.2093L235.785 30.3613V23.3573H234.046V43.1589H231.604V97.0013H229.162V68.6861H222.547V54.1001H220.699V97.0013H215.672V80.6745H212.358V76.5061H204.699V62.2601H200.498V52.1893H195.342V37.5081H193.501V52.1893H188.338V62.2601H184.144V76.5061H176.478V80.6745H173.163V97.0013H169.242V76.5061H161.576V32.3877H159.135V27.5257H142.76V32.3877H139.275V64.3477H125.342V67.4689H120.117V69.9033H125.342V82.4085H110.706V40.7245H107.575V31.8641H100.783V0.427734H98.8663V31.8641H93.9832V40.7245H65.3937V37.8073H63.6478V57.6089H61.2131V57.9557H59.7468V77.7573H57.3052V83.1429H52.1493V68.5501H50.3011V103.291H48.2483V88.6985H46.4V111.451H45.2747V95.1245H41.967V90.9561H34.3014V76.7169H30.1071V66.6393H24.9443V51.9649H23.1029V66.6393H17.947V76.7169H13.7459V90.9561H6.0802V95.1245H2.7725V111.105H2.17916V111.451H0.542358V154.509H261.114Z" fill="#E6E6E6"/>
</svg>
