<svg width="101" height="177" viewBox="0 0 101 177" fill="none" xmlns="http://www.w3.org/2000/svg">
<g id="freepik--Tree--inject-61">
<path id="Vector" d="M99.7041 54.0004C98.833 53.4174 97.807 53.1073 96.7578 53.1096C96.1577 52.3004 96.7579 51.158 97.3921 50.3896C98.0264 49.6212 98.8584 48.7576 98.6674 47.7648C98.3878 46.2756 96.3145 46.1192 94.8073 46.3368C94.2958 45.412 94.364 44.2968 94.1253 43.27C93.8866 42.2432 93.1432 41.1416 92.0793 41.23C91.0154 41.3184 90.4357 42.3792 89.4604 42.59C88.3283 42.794 87.4145 41.7604 86.562 40.9784C86.4564 40.8808 86.3448 40.79 86.2278 40.7064C86.5619 37.6532 89.4673 38.2856 91.9838 37.9864C93.948 37.7552 89.0308 32.6008 93.0341 31.1864C93.8106 31.0119 94.5037 30.5775 94.9983 29.9556C95.2108 29.4887 95.255 28.9628 95.1232 28.4671C94.9915 27.9714 94.6919 27.5364 94.2754 27.2356C93.4012 26.6536 92.3734 26.3436 91.3223 26.3448C90.7221 25.5356 91.3223 24.3932 91.9566 23.6248C92.5908 22.8564 93.4229 21.9928 93.2319 21C92.9523 19.5108 90.8858 19.3544 89.3718 19.572C88.8603 18.6472 88.9285 17.532 88.6898 16.5052C88.4511 15.4784 87.7145 14.3768 86.6438 14.4652C85.573 14.5536 85.0002 15.6144 84.0181 15.8252C82.886 16.0292 81.9721 14.9956 81.1196 14.2136C80.2671 13.4316 78.7667 12.8944 78.112 13.8396C77.7232 14.404 77.9006 15.1996 77.4913 15.7912C76.8093 16.7568 75.2748 16.0632 74.3473 15.3084C73.4198 14.5536 71.9194 13.8396 71.1965 14.7916C71.0116 15.107 70.8695 15.4454 70.7737 15.798C70.6667 16.0425 70.5267 16.2713 70.3576 16.478C70.2008 15.798 70.1803 15.0432 70.0303 14.3428C69.812 13.316 69.055 12.2076 67.9843 12.3028C66.9135 12.398 66.3338 13.452 65.3586 13.6288C64.2265 13.8396 63.3126 12.806 62.4601 12.024C61.6076 11.242 60.1072 10.664 59.4524 11.65C59.0569 12.2144 59.2342 13.01 58.8318 13.5948C58.7456 13.7187 58.634 13.823 58.5045 13.9008C58.1771 13.8464 57.8225 13.8124 57.5156 13.7852C56.9086 12.9828 57.5156 11.8336 58.1498 11.0652C58.7841 10.2968 59.6093 9.43323 59.4183 8.44723C59.1387 6.95123 57.0723 6.80163 55.5582 7.01243C55.0536 6.09443 55.1149 4.97243 54.8762 3.95243C54.6375 2.93243 53.901 1.81723 52.8302 1.91243C51.7595 2.00763 51.1866 3.06163 50.2113 3.27243C49.0724 3.48323 48.1653 2.44963 47.3128 1.66763C46.4603 0.885631 44.9531 0.307629 44.2984 1.29363C43.9097 1.85803 44.087 2.65363 43.6846 3.23843C43.0026 4.20403 41.4613 3.51043 40.5338 2.75563C39.6062 2.00083 38.1059 1.28683 37.3829 2.23883C37.1993 2.55482 37.0572 2.89307 36.9601 3.24523C36.4418 4.53043 34.9959 5.11523 33.8502 5.90403C32.7044 6.69283 31.7428 8.31123 32.6294 9.37883C33.0659 9.90924 33.8706 10.154 34.0684 10.8068C34.3139 11.6296 33.4546 12.3096 32.7726 12.8468C32.3311 13.2963 32.0218 13.8581 31.8787 14.4709C31.7356 15.0837 31.7641 15.7239 31.961 16.3216C31.6196 16.6072 31.219 16.8138 30.788 16.9268C29.6559 17.1308 28.742 16.0972 27.8895 15.3152C27.037 14.5332 25.5366 13.996 24.8819 14.9412C24.4931 15.5056 24.6705 16.3352 24.2613 16.8928C23.5793 17.8584 22.0448 17.1648 21.1172 16.41C20.1897 15.6552 18.6893 14.9412 17.9664 15.8864C17.7809 16.2015 17.6387 16.54 17.5436 16.8928C17.0252 18.1848 15.5726 18.7628 14.4268 19.5516C13.2811 20.3404 12.3263 21.9656 13.2129 23.0332C13.6289 23.5364 14.3791 23.788 14.6178 24.3932C13.8539 24.0532 13.0151 23.9988 12.5718 24.6448C12.1285 25.2908 12.3535 26.0048 11.9512 26.5964C11.2692 27.562 9.72784 26.8684 8.80714 26.1136C7.88644 25.3588 6.37921 24.6448 5.65629 25.5968C5.46862 25.9108 5.32627 26.2496 5.23345 26.6032C4.71513 27.8884 3.26247 28.4664 2.11671 29.2552C0.970952 30.044 0.016153 31.6692 0.902753 32.7368C1.33923 33.2672 2.13717 33.5052 2.33495 34.1648C2.58047 34.9808 1.72115 35.6608 1.04597 36.2048C-0.0861476 37.0752 -0.420325 39.8156 0.984595 40.6384C1.57111 40.9852 2.45089 41.128 2.56683 41.7944C2.68277 42.4608 2.04169 42.828 1.61885 43.2632C1.35003 43.576 1.1526 43.9434 1.04024 44.3398C0.927891 44.7362 0.9033 45.1522 0.968168 45.559C1.03304 45.9659 1.18582 46.3538 1.41593 46.6959C1.64604 47.038 1.94799 47.3262 2.30085 47.5404C2.63504 47.724 3.05105 47.8804 3.16017 48.2204C3.20282 48.4912 3.16241 48.7685 3.04423 49.016C2.87988 49.5065 2.80595 50.0225 2.82599 50.5392C2.81391 50.7175 2.87271 50.8934 2.98967 51.0288C3.11914 51.1275 3.27686 51.1823 3.43979 51.1852C5.48579 51.3756 6.54289 50.6888 7.72275 52.5452C7.8249 52.7303 7.9642 52.8923 8.13195 53.0212C8.30591 53.1185 8.49913 53.1765 8.69801 53.1912C10.1166 53.3748 11.0918 52.5112 12.4013 52.4364C14.2222 52.2936 14.5564 53.2388 16.1114 54.0616C18.5597 55.3604 19.8078 54.694 20.3602 53.0144C20.5107 52.5388 20.6113 52.0488 20.6603 51.5524C20.6723 51.1825 20.7644 50.8196 20.9304 50.4886C21.0964 50.1576 21.3323 49.8663 21.6219 49.6348H21.6697C22.9927 49.8048 23.9271 49.0976 25.0796 48.914L25.8162 48.8732C27.2211 48.9276 27.644 49.764 29.0489 50.5052C29.6942 50.8857 30.4165 51.118 31.1631 51.1852C31.3336 51.9672 30.4811 52.62 29.8605 53.13C28.7284 53.9936 28.3942 56.7408 29.7991 57.5636C30.3856 57.9104 31.2654 58.0464 31.3813 58.7196C31.4973 59.3928 30.8562 59.7532 30.4334 60.1884C30.1656 60.5017 29.9692 60.8691 29.8575 61.2653C29.7458 61.6615 29.7215 62.0772 29.7863 62.4837C29.8511 62.8901 30.0035 63.2778 30.2329 63.6199C30.4623 63.9621 30.7634 64.2506 31.1154 64.4656C31.4495 64.6492 31.8655 64.8056 31.9747 65.1456C32.0173 65.4164 31.9769 65.6937 31.8587 65.9412C31.6944 66.434 31.6205 66.9523 31.6405 67.4712C31.626 67.556 31.6316 67.6431 31.6568 67.7253C31.6821 67.8076 31.7263 67.8828 31.786 67.9449C31.8457 68.007 31.9191 68.0544 32.0004 68.0831C32.0818 68.1119 32.1687 68.1212 32.2543 68.1104C34.3003 68.3008 35.3574 67.6208 36.5373 69.4704C36.6374 69.6587 36.777 69.8234 36.9464 69.9532C37.1204 70.0505 37.3136 70.1085 37.5125 70.1232C38.9311 70.3068 39.9063 69.4432 41.2158 69.3616C43.0367 69.2188 43.3709 70.1708 44.9258 70.9936C47.3742 72.2856 48.6223 71.6192 49.1747 69.9464C49.3252 69.4685 49.4258 68.9762 49.4748 68.4776C49.8021 65.4244 52.7143 66.05 55.2309 65.7576C55.3179 65.7552 55.4027 65.73 55.4769 65.6847C55.551 65.6393 55.612 65.5754 55.6537 65.4992H55.8106C57.2291 65.6828 58.2044 64.8192 59.5138 64.7376C61.3279 64.5948 61.6689 65.5468 63.2239 66.3696C65.6723 67.6616 66.9203 67.002 67.4728 65.3224C67.6241 64.845 67.7224 64.3525 67.766 63.8536C68.0252 61.4804 69.8461 61.3308 71.858 61.2424C71.868 61.7102 71.9987 62.1674 72.2376 62.57C72.4766 62.9727 72.8156 63.307 73.222 63.5408C73.5562 63.7244 73.9722 63.8808 74.0882 64.2208C74.1246 64.4923 74.082 64.7685 73.9654 65.0164C73.8 65.5065 73.7283 66.0232 73.754 66.5396C73.7397 66.6238 73.7452 66.7101 73.7701 66.7918C73.7951 66.8735 73.8387 66.9483 73.8975 67.0102C73.9564 67.0722 74.0289 67.1197 74.1093 67.149C74.1898 67.1782 74.2759 67.1885 74.361 67.1788C76.407 67.376 77.4709 66.6892 78.6439 68.5388C78.7461 68.7239 78.8854 68.8859 79.0531 69.0148C79.2271 69.1121 79.4203 69.1701 79.6192 69.1848C81.0378 69.3684 82.013 68.5048 83.3224 68.43C85.1434 68.2872 85.4776 69.2324 87.0393 70.0552C89.4809 71.354 90.7358 70.6876 91.2882 69.008C91.4337 68.5291 91.5319 68.0372 91.5815 67.5392C91.9156 64.486 94.821 65.1184 97.3375 64.8192C99.3017 64.588 94.3777 59.4336 98.3878 58.0192C99.2039 57.8494 99.9294 57.3874 100.427 56.7204C100.641 56.2537 100.686 55.7274 100.554 55.2314C100.422 54.7354 100.122 54.3003 99.7041 54.0004ZM73.1743 57.1284C73.2775 57.1914 73.3669 57.2744 73.4372 57.3725C73.5075 57.4706 73.5573 57.5819 73.5835 57.6996C73.6129 57.8851 73.5768 58.075 73.4812 58.2368C73.3534 57.8726 73.2508 57.4999 73.1743 57.1216V57.1284ZM47.572 30.3364C46.8032 30.131 46.1141 29.6998 45.5942 29.0988C46.2934 29.4442 46.956 29.8588 47.572 30.3364ZM67.8069 37.6804C67.9085 37.3767 68.0709 37.0968 68.2843 36.8576C68.5059 36.9553 68.6798 37.1361 68.7686 37.3608C68.7789 37.4284 68.7789 37.4972 68.7686 37.5648C68.6287 37.5271 68.4834 37.5133 68.3389 37.524C68.1538 37.5448 67.9738 37.5977 67.8069 37.6804ZM70.535 40.3528C71.7012 40.3528 72.4855 40.3528 73.3516 41.7128C73.4515 41.8994 73.5912 42.0619 73.7608 42.1888C73.9327 42.2851 74.1235 42.3431 74.3201 42.3588C75.0552 42.4217 75.7943 42.2977 76.4683 41.9984C76.4001 42.1888 76.3456 42.386 76.2706 42.5764C75.9791 43.2071 75.5038 43.7355 74.9066 44.0928C74.627 42.5968 72.5605 42.4472 71.0464 42.658C70.7193 41.9199 70.5387 41.1255 70.5145 40.3188L70.535 40.3528ZM79.8443 42.0664C79.7087 41.9552 79.5675 41.8508 79.4214 41.7536C80.0126 42.0469 80.5705 42.4025 81.0855 42.8144C80.6292 42.616 80.2042 42.3526 79.8238 42.0324L79.8443 42.0664Z" fill="#5256E8"/>
<path id="Vector_2" d="M24.9842 81.064C24.2932 80.6138 23.4841 80.3772 22.6586 80.384C22.188 79.7448 22.6586 78.8472 23.1564 78.2488C23.6543 77.6504 24.309 76.9636 24.1658 76.2088C23.9407 75.0324 22.3108 74.91 21.1241 75.08C20.7217 74.3592 20.7763 73.482 20.5989 72.6728C20.4216 71.8636 19.8351 70.9932 19.0031 71.0544C18.171 71.1156 17.7073 71.9588 16.9571 72.1016C16.0636 72.2648 15.3339 71.4216 14.6724 70.83C14.0108 70.2384 12.8173 69.7964 12.3058 70.5376C11.9921 70.9864 12.1353 71.6324 11.8148 72.0744C11.2624 72.836 10.0689 72.2852 9.33912 71.6936C8.60938 71.102 7.42952 70.5376 6.85664 71.2856C6.70948 71.5344 6.59704 71.8021 6.52246 72.0812C6.11326 73.0876 4.97432 73.55 4.07408 74.1688C3.17384 74.7876 2.41682 76.066 3.11246 76.8888C3.46028 77.3036 4.08772 77.494 4.24458 78.0108C4.44236 78.6568 3.76036 79.194 3.2284 79.602C2.33498 80.282 2.07582 82.4512 3.18066 83.0972C3.6376 83.3692 4.33324 83.478 4.4219 84.0084C4.51056 84.5388 4.0127 84.8176 3.67852 85.1644C3.46149 85.4109 3.30128 85.7017 3.20915 86.0165C3.11702 86.3314 3.09523 86.6625 3.14529 86.9866C3.19535 87.3108 3.31606 87.62 3.49891 87.8926C3.68177 88.1652 3.92233 88.3945 4.20366 88.5644C4.46964 88.7072 4.797 88.8296 4.88566 89.122C4.91797 89.3354 4.88468 89.5535 4.79018 89.7476C4.66216 90.1356 4.60442 90.5431 4.61968 90.9512C4.61251 91.09 4.65887 91.2262 4.74926 91.332C4.85131 91.4096 4.9756 91.4525 5.1039 91.4544C6.73388 91.604 7.55228 91.0668 8.47298 92.5288C8.55551 92.6763 8.66682 92.8058 8.80034 92.9096C8.93701 92.9841 9.08825 93.0282 9.24364 93.0388C10.3621 93.1884 11.126 92.522 12.1626 92.4404C13.5948 92.3316 13.8608 93.0796 15.0816 93.7256C17.0116 94.7456 17.9937 94.222 18.4302 92.9028C18.5454 92.526 18.6231 92.1388 18.6621 91.7468C18.9212 89.3396 21.2127 89.836 23.1974 89.6048C24.7387 89.4212 20.8649 85.3616 24.0226 84.2668C24.6321 84.1304 25.1762 83.7895 25.5639 83.3012C25.754 82.9213 25.8 82.4857 25.6934 82.0746C25.5869 81.6635 25.3351 81.3046 24.9842 81.064Z" fill="#5256E8"/>
<g id="Group" opacity="0.3">
<path id="Vector_3" d="M99.7041 54.0004C98.833 53.4174 97.807 53.1073 96.7578 53.1096C96.1577 52.3004 96.7579 51.158 97.3921 50.3896C98.0264 49.6212 98.8584 48.7576 98.6674 47.7648C98.3878 46.2756 96.3145 46.1192 94.8073 46.3368C94.2958 45.412 94.364 44.2968 94.1253 43.27C93.8866 42.2432 93.1432 41.1416 92.0793 41.23C91.0154 41.3184 90.4357 42.3792 89.4604 42.59C88.3283 42.794 87.4145 41.7604 86.562 40.9784C86.4564 40.8808 86.3448 40.79 86.2278 40.7064C86.5619 37.6532 89.4673 38.2856 91.9838 37.9864C93.948 37.7552 89.0308 32.6008 93.0341 31.1864C93.8106 31.0119 94.5037 30.5775 94.9983 29.9556C95.2108 29.4887 95.255 28.9628 95.1232 28.4671C94.9915 27.9714 94.6919 27.5364 94.2754 27.2356C93.4012 26.6536 92.3734 26.3436 91.3223 26.3448C90.7221 25.5356 91.3223 24.3932 91.9566 23.6248C92.5908 22.8564 93.4229 21.9928 93.2319 21C92.9523 19.5108 90.8858 19.3544 89.3718 19.572C88.8603 18.6472 88.9285 17.532 88.6898 16.5052C88.4511 15.4784 87.7145 14.3768 86.6438 14.4652C85.573 14.5536 85.0002 15.6144 84.0181 15.8252C82.886 16.0292 81.9721 14.9956 81.1196 14.2136C80.2671 13.4316 78.7667 12.8944 78.112 13.8396C77.7232 14.404 77.9006 15.1996 77.4913 15.7912C76.8093 16.7568 75.2748 16.0632 74.3473 15.3084C73.4198 14.5536 71.9194 13.8396 71.1965 14.7916C71.0116 15.107 70.8695 15.4454 70.7737 15.798C70.6667 16.0425 70.5267 16.2713 70.3576 16.478C70.2008 15.798 70.1803 15.0432 70.0303 14.3428C69.812 13.316 69.055 12.2076 67.9843 12.3028C66.9135 12.398 66.3338 13.452 65.3586 13.6288C64.2265 13.8396 63.3126 12.806 62.4601 12.024C61.6076 11.242 60.1072 10.664 59.4524 11.65C59.0569 12.2144 59.2342 13.01 58.8318 13.5948C58.7456 13.7187 58.634 13.823 58.5045 13.9008C58.1771 13.8464 57.8225 13.8124 57.5156 13.7852C56.9086 12.9828 57.5156 11.8336 58.1498 11.0652C58.7841 10.2968 59.6093 9.43323 59.4183 8.44723C59.1387 6.95123 57.0723 6.80163 55.5582 7.01243C55.0536 6.09443 55.1149 4.97243 54.8762 3.95243C54.6375 2.93243 53.901 1.81723 52.8302 1.91243C51.7595 2.00763 51.1866 3.06163 50.2113 3.27243C49.0724 3.48323 48.1653 2.44963 47.3128 1.66763C46.4603 0.885631 44.9531 0.307629 44.2984 1.29363C43.9097 1.85803 44.087 2.65363 43.6846 3.23843C43.0026 4.20403 41.4613 3.51043 40.5338 2.75563C39.6062 2.00083 38.1059 1.28683 37.3829 2.23883C37.1993 2.55482 37.0572 2.89307 36.9601 3.24523C36.4418 4.53043 34.9959 5.11523 33.8502 5.90403C32.7044 6.69283 31.7428 8.31123 32.6294 9.37883C33.0659 9.90924 33.8706 10.154 34.0684 10.8068C34.3139 11.6296 33.4546 12.3096 32.7726 12.8468C32.3311 13.2963 32.0218 13.8581 31.8787 14.4709C31.7356 15.0837 31.7641 15.7239 31.961 16.3216C31.6196 16.6072 31.219 16.8138 30.788 16.9268C29.6559 17.1308 28.742 16.0972 27.8895 15.3152C27.037 14.5332 25.5366 13.996 24.8819 14.9412C24.4931 15.5056 24.6705 16.3352 24.2613 16.8928C23.5793 17.8584 22.0448 17.1648 21.1172 16.41C20.1897 15.6552 18.6893 14.9412 17.9664 15.8864C17.7809 16.2015 17.6387 16.54 17.5436 16.8928C17.0252 18.1848 15.5726 18.7628 14.4268 19.5516C13.2811 20.3404 12.3263 21.9656 13.2129 23.0332C13.6289 23.5364 14.3791 23.788 14.6178 24.3932C13.8539 24.0532 13.0151 23.9988 12.5718 24.6448C12.1285 25.2908 12.3535 26.0048 11.9512 26.5964C11.2692 27.562 9.72784 26.8684 8.80714 26.1136C7.88644 25.3588 6.37921 24.6448 5.65629 25.5968C5.46862 25.9108 5.32627 26.2496 5.23345 26.6032C4.71513 27.8884 3.26247 28.4664 2.11671 29.2552C0.970952 30.044 0.016153 31.6692 0.902753 32.7368C1.33923 33.2672 2.13717 33.5052 2.33495 34.1648C2.58047 34.9808 1.72115 35.6608 1.04597 36.2048C-0.0861476 37.0752 -0.420325 39.8156 0.984595 40.6384C1.57111 40.9852 2.45089 41.128 2.56683 41.7944C2.68277 42.4608 2.04169 42.828 1.61885 43.2632C1.35003 43.576 1.1526 43.9434 1.04024 44.3398C0.927891 44.7362 0.9033 45.1522 0.968168 45.559C1.03304 45.9659 1.18582 46.3538 1.41593 46.6959C1.64604 47.038 1.94799 47.3262 2.30085 47.5404C2.63504 47.724 3.05105 47.8804 3.16017 48.2204C3.20282 48.4912 3.16241 48.7685 3.04423 49.016C2.87988 49.5065 2.80595 50.0225 2.82599 50.5392C2.81391 50.7175 2.87271 50.8934 2.98967 51.0288C3.11914 51.1275 3.27686 51.1823 3.43979 51.1852C5.48579 51.3756 6.54289 50.6888 7.72275 52.5452C7.8249 52.7303 7.9642 52.8923 8.13195 53.0212C8.30591 53.1185 8.49913 53.1765 8.69801 53.1912C10.1166 53.3748 11.0918 52.5112 12.4013 52.4364C14.2222 52.2936 14.5564 53.2388 16.1114 54.0616C18.5597 55.3604 19.8078 54.694 20.3602 53.0144C20.5107 52.5388 20.6113 52.0488 20.6603 51.5524C20.6723 51.1825 20.7644 50.8196 20.9304 50.4886C21.0964 50.1576 21.3323 49.8663 21.6219 49.6348H21.6697C22.9927 49.8048 23.9271 49.0976 25.0796 48.914L25.8162 48.8732C27.2211 48.9276 27.644 49.764 29.0489 50.5052C29.6942 50.8857 30.4165 51.118 31.1631 51.1852C31.3336 51.9672 30.4811 52.62 29.8605 53.13C28.7284 53.9936 28.3942 56.7408 29.7991 57.5636C30.3856 57.9104 31.2654 58.0464 31.3813 58.7196C31.4973 59.3928 30.8562 59.7532 30.4334 60.1884C30.1656 60.5017 29.9692 60.8691 29.8575 61.2653C29.7458 61.6615 29.7215 62.0772 29.7863 62.4837C29.8511 62.8901 30.0035 63.2778 30.2329 63.6199C30.4623 63.9621 30.7634 64.2506 31.1154 64.4656C31.4495 64.6492 31.8655 64.8056 31.9747 65.1456C32.0173 65.4164 31.9769 65.6937 31.8587 65.9412C31.6944 66.434 31.6205 66.9523 31.6405 67.4712C31.626 67.556 31.6316 67.6431 31.6568 67.7253C31.6821 67.8076 31.7263 67.8828 31.786 67.9449C31.8457 68.007 31.9191 68.0544 32.0004 68.0831C32.0818 68.1119 32.1687 68.1212 32.2543 68.1104C34.3003 68.3008 35.3574 67.6208 36.5373 69.4704C36.6374 69.6587 36.777 69.8234 36.9464 69.9532C37.1204 70.0505 37.3136 70.1085 37.5125 70.1232C38.9311 70.3068 39.9063 69.4432 41.2158 69.3616C43.0367 69.2188 43.3709 70.1708 44.9258 70.9936C47.3742 72.2856 48.6223 71.6192 49.1747 69.9464C49.3252 69.4685 49.4258 68.9762 49.4748 68.4776C49.8021 65.4244 52.7143 66.05 55.2309 65.7576C55.3179 65.7552 55.4027 65.73 55.4769 65.6847C55.551 65.6393 55.612 65.5754 55.6537 65.4992H55.8106C57.2291 65.6828 58.2044 64.8192 59.5138 64.7376C61.3279 64.5948 61.6689 65.5468 63.2239 66.3696C65.6723 67.6616 66.9203 67.002 67.4728 65.3224C67.6241 64.845 67.7224 64.3525 67.766 63.8536C68.0252 61.4804 69.8461 61.3308 71.858 61.2424C71.868 61.7102 71.9987 62.1674 72.2376 62.57C72.4766 62.9727 72.8156 63.307 73.222 63.5408C73.5562 63.7244 73.9722 63.8808 74.0882 64.2208C74.1246 64.4923 74.082 64.7685 73.9654 65.0164C73.8 65.5065 73.7283 66.0232 73.754 66.5396C73.7397 66.6238 73.7452 66.7101 73.7701 66.7918C73.7951 66.8735 73.8387 66.9483 73.8975 67.0102C73.9564 67.0722 74.0289 67.1197 74.1093 67.149C74.1898 67.1782 74.2759 67.1885 74.361 67.1788C76.407 67.376 77.4709 66.6892 78.6439 68.5388C78.7461 68.7239 78.8854 68.8859 79.0531 69.0148C79.2271 69.1121 79.4203 69.1701 79.6192 69.1848C81.0378 69.3684 82.013 68.5048 83.3224 68.43C85.1434 68.2872 85.4776 69.2324 87.0393 70.0552C89.4809 71.354 90.7358 70.6876 91.2882 69.008C91.4337 68.5291 91.5319 68.0372 91.5815 67.5392C91.9156 64.486 94.821 65.1184 97.3375 64.8192C99.3017 64.588 94.3777 59.4336 98.3878 58.0192C99.2039 57.8494 99.9294 57.3874 100.427 56.7204C100.641 56.2537 100.686 55.7274 100.554 55.2314C100.422 54.7354 100.122 54.3003 99.7041 54.0004ZM73.1743 57.1284C73.2775 57.1914 73.3669 57.2744 73.4372 57.3725C73.5075 57.4706 73.5573 57.5819 73.5835 57.6996C73.6129 57.8851 73.5768 58.075 73.4812 58.2368C73.3534 57.8726 73.2508 57.4999 73.1743 57.1216V57.1284ZM47.572 30.3364C46.8032 30.131 46.1141 29.6998 45.5942 29.0988C46.2934 29.4442 46.956 29.8588 47.572 30.3364ZM67.8069 37.6804C67.9085 37.3767 68.0709 37.0968 68.2843 36.8576C68.5059 36.9553 68.6798 37.1361 68.7686 37.3608C68.7789 37.4284 68.7789 37.4972 68.7686 37.5648C68.6287 37.5271 68.4834 37.5133 68.3389 37.524C68.1538 37.5448 67.9738 37.5977 67.8069 37.6804ZM70.535 40.3528C71.7012 40.3528 72.4855 40.3528 73.3516 41.7128C73.4515 41.8994 73.5912 42.0619 73.7608 42.1888C73.9327 42.2851 74.1235 42.3431 74.3201 42.3588C75.0552 42.4217 75.7943 42.2977 76.4683 41.9984C76.4001 42.1888 76.3456 42.386 76.2706 42.5764C75.9791 43.2071 75.5038 43.7355 74.9066 44.0928C74.627 42.5968 72.5605 42.4472 71.0464 42.658C70.7193 41.9199 70.5387 41.1255 70.5145 40.3188L70.535 40.3528ZM79.8443 42.0664C79.7087 41.9552 79.5675 41.8508 79.4214 41.7536C80.0126 42.0469 80.5705 42.4025 81.0855 42.8144C80.6292 42.616 80.2042 42.3526 79.8238 42.0324L79.8443 42.0664Z" fill="white"/>
<path id="Vector_4" d="M24.9842 81.064C24.2932 80.6138 23.4841 80.3772 22.6586 80.384C22.188 79.7448 22.6586 78.8472 23.1564 78.2488C23.6543 77.6504 24.309 76.9636 24.1658 76.2088C23.9407 75.0324 22.3108 74.91 21.1241 75.08C20.7217 74.3592 20.7763 73.482 20.5989 72.6728C20.4216 71.8636 19.8351 70.9932 19.0031 71.0544C18.171 71.1156 17.7073 71.9588 16.9571 72.1016C16.0636 72.2648 15.3339 71.4216 14.6724 70.83C14.0108 70.2384 12.8173 69.7964 12.3058 70.5376C11.9921 70.9864 12.1353 71.6324 11.8148 72.0744C11.2624 72.836 10.0689 72.2852 9.33912 71.6936C8.60938 71.102 7.42952 70.5376 6.85664 71.2856C6.70948 71.5344 6.59704 71.8021 6.52246 72.0812C6.11326 73.0876 4.97432 73.55 4.07408 74.1688C3.17384 74.7876 2.41682 76.066 3.11246 76.8888C3.46028 77.3036 4.08772 77.494 4.24458 78.0108C4.44236 78.6568 3.76036 79.194 3.2284 79.602C2.33498 80.282 2.07582 82.4512 3.18066 83.0972C3.6376 83.3692 4.33324 83.478 4.4219 84.0084C4.51056 84.5388 4.0127 84.8176 3.67852 85.1644C3.46149 85.4109 3.30128 85.7017 3.20915 86.0165C3.11702 86.3314 3.09523 86.6625 3.14529 86.9866C3.19535 87.3108 3.31606 87.62 3.49891 87.8926C3.68177 88.1652 3.92233 88.3945 4.20366 88.5644C4.46964 88.7072 4.797 88.8296 4.88566 89.122C4.91797 89.3354 4.88468 89.5535 4.79018 89.7476C4.66216 90.1356 4.60442 90.5431 4.61968 90.9512C4.61251 91.09 4.65887 91.2262 4.74926 91.332C4.85131 91.4096 4.9756 91.4525 5.1039 91.4544C6.73388 91.604 7.55228 91.0668 8.47298 92.5288C8.55551 92.6763 8.66682 92.8058 8.80034 92.9096C8.93701 92.9841 9.08825 93.0282 9.24364 93.0388C10.3621 93.1884 11.126 92.522 12.1626 92.4404C13.5948 92.3316 13.8608 93.0796 15.0816 93.7256C17.0116 94.7456 17.9937 94.222 18.4302 92.9028C18.5454 92.526 18.6231 92.1388 18.6621 91.7468C18.9212 89.3396 21.2127 89.836 23.1974 89.6048C24.7387 89.4212 20.8649 85.3616 24.0226 84.2668C24.6321 84.1304 25.1762 83.7895 25.5639 83.3012C25.754 82.9213 25.8 82.4857 25.6934 82.0746C25.5869 81.6635 25.3351 81.3046 24.9842 81.064Z" fill="white"/>
</g>
<path id="Vector_5" d="M69.1096 66.614L72.806 56.5976L79.4623 48.8796L78.4325 47.9344L72.2127 54.0544L71.6602 43.8544L69.3073 43.7388C69.3073 43.7388 71.8512 55.5096 69.6006 59.8412C69.6006 59.8412 60.2708 78.4799 55.5991 82.2812C55.3413 82.5061 55.1123 82.7619 54.9171 83.0428C53.7475 79.5499 52.1655 76.208 50.2045 73.0876C52.1891 68.6676 56.4516 58.93 57.9998 53.7212C59.2086 49.6575 60.1697 45.5246 60.8778 41.3452L59.166 40.3184C59.166 40.3184 54.3101 60.4872 47.0127 69.0552C45.0662 67.0988 42.8334 65.448 40.3905 64.1592C39.9745 61.3848 39.9677 56.5908 42.1569 49.1992L40.8611 47.8868C40.8611 47.8868 37.6421 54.9724 37.5125 62.5408C36.5064 61.9722 35.5403 61.336 34.6208 60.6368C28.2305 55.6796 23.9884 47.0708 23.9884 47.0708L21.4787 46.9484C21.4787 46.9484 27.6167 60.9496 35.2824 65.4648C42.948 69.98 47.5584 80.282 47.8312 82.9408C47.913 83.7024 47.6947 91.6651 47.3537 102.661C39.0061 97.0508 18.4915 83.2196 17.4344 82.2607L17.3116 84.8108L47.1423 109.08C46.3171 134.628 45.0281 170.443 44.8167 176.189L57.0041 176.781C57.5292 168.859 60.4141 122.564 57.7747 97.0576C57.9316 96.296 58.1021 95.4255 58.2862 94.4123C59.9639 84.8923 69.6142 70.9048 71.517 68.6744C73.4198 66.444 78.944 59.3992 78.944 59.3992L77.9551 57.74L69.1096 66.614Z" fill="#263238"/>
<path id="Vector_6" opacity="0.6" d="M69.1096 66.614L72.806 56.5976L79.4623 48.8796L78.4325 47.9344L72.2127 54.0544L71.6602 43.8544L69.3073 43.7388C69.3073 43.7388 71.8512 55.5096 69.6006 59.8412C69.6006 59.8412 60.2708 78.4799 55.5991 82.2812C55.3413 82.5061 55.1123 82.7619 54.9171 83.0428C53.7475 79.5499 52.1655 76.208 50.2045 73.0876C52.1891 68.6676 56.4516 58.93 57.9998 53.7212C59.2086 49.6575 60.1697 45.5246 60.8778 41.3452L59.166 40.3184C59.166 40.3184 54.3101 60.4872 47.0127 69.0552C45.0662 67.0988 42.8334 65.448 40.3905 64.1592C39.9745 61.3848 39.9677 56.5908 42.1569 49.1992L40.8611 47.8868C40.8611 47.8868 37.6421 54.9724 37.5125 62.5408C36.5064 61.9722 35.5403 61.336 34.6208 60.6368C28.2305 55.6796 23.9884 47.0708 23.9884 47.0708L21.4787 46.9484C21.4787 46.9484 27.6167 60.9496 35.2824 65.4648C42.948 69.98 47.5584 80.282 47.8312 82.9408C47.913 83.7024 47.6947 91.6651 47.3537 102.661C39.0061 97.0508 18.4915 83.2196 17.4344 82.2607L17.3116 84.8108L47.1423 109.08C46.3171 134.628 45.0281 170.443 44.8167 176.189L57.0041 176.781C57.5292 168.859 60.4141 122.564 57.7747 97.0576C57.9316 96.296 58.1021 95.4255 58.2862 94.4123C59.9639 84.8923 69.6142 70.9048 71.517 68.6744C73.4198 66.444 78.944 59.3992 78.944 59.3992L77.9551 57.74L69.1096 66.614Z" fill="white"/>
</g>
</svg>
