<svg width="24" height="24" viewBox="0 0 24 24" fill="none" xmlns="http://www.w3.org/2000/svg">
<g id="Regular/angle-small-left">
<path id="vector" d="M10.6 12.7074C10.4126 12.5199 10.3072 12.2656 10.3072 12.0004C10.3072 11.7352 10.4126 11.4809 10.6 11.2934L15.185 6.70741C15.3672 6.5188 15.468 6.2662 15.4657 6.00401C15.4634 5.74181 15.3583 5.491 15.1728 5.30559C14.9874 5.12018 14.7366 5.01501 14.4744 5.01273C14.2122 5.01045 13.9596 5.11125 13.771 5.29341L9.18903 9.87941C8.62662 10.442 8.31067 11.2049 8.31067 12.0004C8.31067 12.7959 8.62662 13.5588 9.18903 14.1214L13.775 18.7074C13.9636 18.8896 14.2162 18.9904 14.4784 18.9881C14.7406 18.9858 14.9914 18.8806 15.1768 18.6952C15.3623 18.5098 15.4674 18.259 15.4697 17.9968C15.472 17.7346 15.3712 17.482 15.189 17.2934L10.6 12.7074Z" fill="#1C1C1C"/>
</g>
</svg>
