<svg width="17" height="18" viewBox="0 0 17 18" fill="none" xmlns="http://www.w3.org/2000/svg">
<path d="M8.5 1.5625C6.9507 1.56433 5.46538 2.18059 4.36986 3.27611C3.27434 4.37163 2.65808 5.85695 2.65625 7.40625C2.65439 8.67234 3.06796 9.90407 3.8335 10.9125C3.8335 10.9125 3.99287 11.1223 4.0189 11.1526L8.5 16.4375L12.9832 11.15C13.0066 11.1218 13.1665 10.9125 13.1665 10.9125L13.167 10.9109C13.9322 9.90292 14.3456 8.67176 14.3437 7.40625C14.3419 5.85695 13.7257 4.37163 12.6301 3.27611C11.5346 2.18059 10.0493 1.56433 8.5 1.5625ZM8.5 9.53125C8.07971 9.53125 7.66887 9.40662 7.31941 9.17312C6.96996 8.93962 6.69759 8.60775 6.53675 8.21945C6.37592 7.83116 6.33384 7.40389 6.41583 6.99168C6.49782 6.57947 6.70021 6.20083 6.9974 5.90365C7.29458 5.60646 7.67322 5.40407 8.08543 5.32208C8.49764 5.24009 8.92491 5.28217 9.3132 5.44301C9.70149 5.60384 10.0334 5.87621 10.2669 6.22566C10.5004 6.57512 10.625 6.98596 10.625 7.40625C10.6243 7.96962 10.4002 8.50971 10.0018 8.90808C9.60346 9.30644 9.06337 9.53055 8.5 9.53125Z" fill="#5256E8"/>
</svg>
