<svg width="16" height="16" viewBox="0 0 16 16" fill="none" xmlns="http://www.w3.org/2000/svg">
<g clip-path="url(#clip0_746_1866)">
<path d="M6.66669 7.55566H8.00002V8.44455H6.66669V7.55566Z" fill="#5256E8"/>
<path d="M11.7556 6.29758C10.9673 5.00772 9.89203 3.91719 8.61336 3.11091C8.02265 2.73653 7.34928 2.51244 6.65203 2.45821C5.95478 2.40398 5.25485 2.52126 4.61336 2.7998C4.05225 3.06447 3.564 3.46175 3.19077 3.95732C2.81754 4.45289 2.57056 5.03187 2.47114 5.64425C2.43558 5.85314 2.40892 6.05314 2.38225 6.24869C1.96614 6.31614 1.58753 6.52925 1.314 6.85C1.04046 7.17075 0.889809 7.57826 0.888916 7.9998V10.7242C0.888916 10.96 0.982567 11.1861 1.14927 11.3528C1.31596 11.5195 1.54206 11.6131 1.7778 11.6131V7.9998C1.7778 7.76406 1.87146 7.53796 2.03815 7.37126C2.20485 7.20457 2.43095 7.11091 2.66669 7.11091H10.9911C11.8477 7.11209 12.6689 7.45289 13.2746 8.05858C13.8803 8.66428 14.2211 9.48544 14.2222 10.342V10.6665H13.3334C13.1457 10.2087 12.796 9.83615 12.3511 9.61979C11.9062 9.40343 11.3972 9.35845 10.9212 9.49343C10.4453 9.62841 10.0357 9.93391 9.77063 10.3516C9.50556 10.7693 9.40356 11.27 9.4841 11.7581C9.56464 12.2463 9.82208 12.6876 10.2073 12.9981C10.5925 13.3085 11.0785 13.4662 11.5726 13.4411C12.0667 13.416 12.5343 13.2099 12.8861 12.8621C13.2379 12.5143 13.4493 12.0491 13.48 11.5554H14.2222C14.458 11.5554 14.6841 11.4617 14.8508 11.295C15.0175 11.1283 15.1111 10.9022 15.1111 10.6665V10.342C15.1093 9.38288 14.7733 8.45435 14.1609 7.71619C13.5485 6.97802 12.6979 6.47639 11.7556 6.29758ZM4.88892 6.22203H3.08003C3.08003 6.08425 3.12003 5.94203 3.14669 5.77758C3.22348 5.28934 3.42387 4.82885 3.72881 4.4399C4.03375 4.05094 4.43311 3.74645 4.88892 3.55536V6.22203ZM5.7778 6.22203V3.36869C6.60756 3.26094 7.44907 3.44306 8.16003 3.88425C9.13058 4.48877 9.96825 5.2841 10.6222 6.22203H5.7778ZM11.4667 12.6131C11.2469 12.6131 11.0321 12.548 10.8494 12.4259C10.6667 12.3038 10.5243 12.1303 10.4402 11.9272C10.3561 11.7242 10.3341 11.5008 10.3769 11.2853C10.4198 11.0697 10.5256 10.8717 10.681 10.7164C10.8364 10.561 11.0344 10.4551 11.2499 10.4123C11.4655 10.3694 11.6889 10.3914 11.8919 10.4755C12.0949 10.5596 12.2685 10.702 12.3905 10.8847C12.5126 11.0674 12.5778 11.2823 12.5778 11.502C12.5778 11.7967 12.4607 12.0793 12.2524 12.2877C12.044 12.4961 11.7614 12.6131 11.4667 12.6131Z" fill="#5256E8"/>
<path d="M6.29775 10.6664C6.11005 10.2087 5.76038 9.8361 5.31548 9.61974C4.87058 9.40338 4.36159 9.3584 3.88564 9.49338C3.40969 9.62837 3.0001 9.93386 2.73503 10.3516C2.46995 10.7693 2.36796 11.27 2.4485 11.7581C2.52904 12.2462 2.78647 12.6876 3.17169 12.998C3.5569 13.3084 4.04293 13.4661 4.53701 13.4411C5.0311 13.416 5.49865 13.2099 5.85046 12.8621C6.20227 12.5143 6.41371 12.0491 6.44442 11.5553H8.79997V11.4442C8.79118 11.182 8.82113 10.9199 8.88886 10.6664H6.29775ZM4.44442 12.6131C4.22466 12.6131 4.00984 12.5479 3.82712 12.4258C3.6444 12.3037 3.50198 12.1302 3.41789 11.9272C3.33379 11.7242 3.31179 11.5007 3.35466 11.2852C3.39753 11.0697 3.50335 10.8717 3.65875 10.7163C3.81414 10.5609 4.01212 10.4551 4.22765 10.4122C4.44319 10.3693 4.66659 10.3913 4.86962 10.4754C5.07265 10.5595 5.24618 10.702 5.36828 10.8847C5.49037 11.0674 5.55553 11.2822 5.55553 11.502C5.55553 11.7967 5.43847 12.0793 5.23009 12.2877C5.02172 12.496 4.7391 12.6131 4.44442 12.6131Z" fill="#5256E8"/>
</g>
<defs>
<clipPath id="clip0_746_1866">
<rect width="16" height="16" fill="white"/>
</clipPath>
</defs>
</svg>
