<svg width="42" height="32" viewBox="0 0 42 32" fill="none" xmlns="http://www.w3.org/2000/svg">
<path d="M27.5722 27.1654C27.5722 29.8313 29.7688 32 32.4689 32C35.1682 32 37.3656 29.8313 37.3656 27.1654C37.3656 24.4995 35.1682 22.3308 32.4689 22.3308C29.7688 22.3308 27.5722 24.4995 27.5722 27.1654ZM9.55941 22.3308C12.2587 22.3308 14.4561 24.4995 14.4561 27.1654C14.4561 29.8313 12.2587 32 9.55941 32C6.85923 32 4.66271 29.8313 4.66271 27.1654C4.66271 24.4995 6.85923 22.3308 9.55941 22.3308ZM16.3769 16.8055H12.002C10.9481 16.8055 9.96347 16.3448 9.29647 15.5407L7.36848 12.7799C7.11464 12.4164 7.26583 11.9135 7.6803 11.7477C10.1687 10.752 13.152 10.0183 16.4768 10.0829C16.894 10.0911 17.2123 10.4545 17.1586 10.863L16.3769 16.8055ZM2.0456 14.8441C2.84613 14.2702 3.85546 13.6152 5.04465 12.9782C5.35988 12.8093 5.75336 12.9004 5.95692 13.1919L8.16035 16.3472C8.94408 17.3867 10.3828 18.1868 12.0021 18.1868C12.4985 18.1868 33.817 18.1868 33.472 18.1868C35.4883 18.1868 37.4953 18.4569 39.438 18.9897C40.9384 19.4012 42 20.7643 42 22.3178V27.1481C42 27.5295 41.6868 27.8388 41.3005 27.8388H39.4646C39.0782 27.8388 38.7663 27.5295 38.7658 27.148C38.7609 23.7745 35.9724 20.9495 32.469 20.9495C28.8905 20.9495 26.0837 23.8851 26.1745 27.318C26.1848 27.7071 25.8703 28.0287 25.476 28.0287H16.5524C16.1581 28.0287 15.8437 27.7071 15.8539 27.318C15.9442 23.8894 13.1426 20.9495 9.55941 20.9495C5.99619 20.9495 3.17744 23.869 3.26427 27.3105C3.27406 27.6992 2.95954 28.0201 2.56579 28.0201H0.727867C0.341553 28.0201 0.0283432 27.7108 0.0283432 27.3294V18.7549C0.0283432 17.2113 0.782082 15.7497 2.0456 14.8441ZM17.7878 16.8055L18.5602 10.9327C18.6111 10.5459 18.9757 10.2775 19.3657 10.3394C23.5369 11.0018 27.2969 12.8587 30.4121 15.6002C30.8914 16.022 30.5871 16.8055 29.945 16.8055H17.7878ZM6.94492 7.20109C7.77054 8.01624 7.17891 9.41206 6.01805 9.41206C5.28966 9.41206 4.70643 8.83053 4.70643 8.11708C4.70643 6.95789 6.12735 6.39389 6.94492 7.20109ZM2.80249 4.94273C4.57956 3.1882 7.45567 3.18812 9.23281 4.94273C9.50607 5.21243 9.50607 5.6497 9.23281 5.91949C8.95965 6.18919 8.51676 6.18919 8.2436 5.91949C7.0133 4.7048 5.02227 4.70471 3.7918 5.91949C3.65522 6.05434 3.47623 6.12177 3.29715 6.12177C2.67955 6.12177 2.36048 5.37914 2.80249 4.94273ZM0.205673 2.37875C3.41799 -0.792745 8.61723 -0.79309 11.8297 2.37875C12.103 2.64845 12.103 3.08573 11.8297 3.35551C11.5566 3.62522 11.1137 3.62522 10.8405 3.35551C8.17495 0.723765 3.86079 0.723593 1.19498 3.35551C1.0584 3.49036 0.879406 3.55779 0.700325 3.55779C0.0826416 3.55779 -0.236256 2.81508 0.205673 2.37875Z" fill="#081F37"/>
</svg>
