<svg width="35" height="34" viewBox="0 0 35 34" fill="none" xmlns="http://www.w3.org/2000/svg">
<g clip-path="url(#clip0_7:296)">
<path d="M33.0736 6.91992H2.1989C1.33728 6.91992 0.63623 7.62097 0.63623 8.48273V13.1688C0.63623 13.6125 0.864668 14.0294 1.23249 14.2569C2.19246 14.8507 2.76555 15.8761 2.76555 16.9999C2.76555 18.1237 2.19246 19.149 1.23243 19.7428C0.864668 19.9702 0.63623 20.3872 0.63623 20.8308V25.5169C0.63623 26.3786 1.33728 27.0796 2.1989 27.0796H33.0736C33.9352 27.0796 34.6362 26.3785 34.6362 25.5169V8.48273C34.6362 7.62097 33.9352 6.91992 33.0736 6.91992ZM33.6401 25.5169C33.6401 25.8294 33.386 26.0835 33.0736 26.0835H8.55252V26.0492C8.55252 25.7742 8.32959 25.5512 8.05447 25.5512C7.77935 25.5512 7.55643 25.7742 7.55643 26.0492V26.0835H2.1989C1.88646 26.0835 1.63232 25.8293 1.63232 25.5169V20.8308C1.63232 20.7296 1.67994 20.6372 1.75644 20.5899C3.01198 19.8133 3.76157 18.4712 3.76157 16.9998C3.76157 15.5284 3.01198 14.1863 1.75644 13.4097C1.67994 13.3623 1.63232 13.27 1.63232 13.1687V8.48259C1.63232 8.17015 1.88646 7.91602 2.1989 7.91602H7.55643V7.95028C7.55643 8.22534 7.77935 8.44833 8.05447 8.44833C8.32959 8.44833 8.55252 8.22534 8.55252 7.95028V7.91602H33.0736C33.386 7.91602 33.6401 8.17022 33.6401 8.48259V25.5169Z" fill="white"/>
<path d="M8.05453 15.9697C7.77941 15.9697 7.55649 16.1927 7.55649 16.4678V17.5324C7.55649 17.8075 7.77941 18.0304 8.05453 18.0304C8.32966 18.0304 8.55258 17.8075 8.55258 17.5324V16.4678C8.55258 16.1927 8.32966 15.9697 8.05453 15.9697Z" fill="white"/>
<path d="M8.05453 9.58203C7.77941 9.58203 7.55649 9.80502 7.55649 10.0801V11.1447C7.55649 11.4198 7.77941 11.6427 8.05453 11.6427C8.32966 11.6427 8.55258 11.4198 8.55258 11.1447V10.0801C8.55258 9.80496 8.32966 9.58203 8.05453 9.58203Z" fill="white"/>
<path d="M8.05453 12.7759C7.77941 12.7759 7.55649 12.9989 7.55649 13.2739V14.3386C7.55649 14.6136 7.77941 14.8366 8.05453 14.8366C8.32966 14.8366 8.55258 14.6136 8.55258 14.3386V13.2739C8.55258 12.9989 8.32966 12.7759 8.05453 12.7759Z" fill="white"/>
<path d="M8.05453 19.1636C7.77941 19.1636 7.55649 19.3866 7.55649 19.6616V20.7262C7.55649 21.0013 7.77941 21.2243 8.05453 21.2243C8.32966 21.2243 8.55258 21.0013 8.55258 20.7262V19.6616C8.55258 19.3865 8.32966 19.1636 8.05453 19.1636Z" fill="white"/>
<path d="M8.05453 22.3574C7.77941 22.3574 7.55649 22.5804 7.55649 22.8555V23.9201C7.55649 24.1952 7.77941 24.4181 8.05453 24.4181C8.32966 24.4181 8.55258 24.1952 8.55258 23.9201V22.8555C8.55258 22.5804 8.32966 22.3574 8.05453 22.3574Z" fill="white"/>
<path d="M27.303 15.2825C27.1388 14.7768 26.6898 14.4268 26.1594 14.3909L23.2209 14.1916L22.1235 11.4586C21.9253 10.9652 21.4538 10.6465 20.9221 10.6465C20.3904 10.6465 19.9189 10.9653 19.7208 11.4586L18.6233 14.1916L15.6848 14.3909C15.1544 14.4269 14.7055 14.7768 14.5412 15.2824C14.3769 15.7881 14.5343 16.3351 14.9424 16.676L17.2025 18.5644L16.4839 21.4206C16.3543 21.9361 16.5484 22.4712 16.9785 22.7837C17.4086 23.0961 17.9774 23.1155 18.4277 22.8328L20.9221 21.2668L23.4165 22.8327C23.6287 22.966 23.8673 23.0321 24.1053 23.0321C24.3721 23.0321 24.6383 22.9489 24.8657 22.7837C25.2959 22.4712 25.49 21.9361 25.3603 21.4205L24.6417 18.5643L26.9018 16.676C27.3099 16.3351 27.4673 15.7881 27.303 15.2825ZM26.2631 15.9116L23.7631 18.0004C23.6164 18.123 23.5528 18.3187 23.5994 18.5041L24.3943 21.6635C24.4387 21.8402 24.3293 21.9422 24.2802 21.9778C24.2311 22.0135 24.1002 22.0859 23.9461 21.9891L21.1869 20.2569C21.025 20.1553 20.8192 20.1553 20.6573 20.2569L17.8981 21.9891C17.7437 22.086 17.6129 22.0135 17.5639 21.9778C17.5148 21.9422 17.4055 21.8402 17.4499 21.6636L18.2448 18.5042C18.2914 18.3188 18.2278 18.123 18.0811 18.0005L15.581 15.9116C15.4413 15.7948 15.4698 15.6479 15.4885 15.5902C15.5072 15.5325 15.5705 15.397 15.7522 15.3847L19.0026 15.1643C19.1933 15.1514 19.3598 15.0304 19.4311 14.853L20.6451 11.8298C20.7129 11.6608 20.8614 11.6426 20.922 11.6426C20.9827 11.6426 21.1312 11.6608 21.1991 11.8298L22.413 14.853C22.4843 15.0304 22.6508 15.1514 22.8415 15.1643L26.0919 15.3847C26.2736 15.3971 26.3368 15.5326 26.3556 15.5903C26.3744 15.648 26.4029 15.7947 26.2631 15.9116Z" fill="white"/>
</g>
<defs>
<clipPath id="clip0_7:296">
<rect width="34" height="34" fill="white" transform="translate(0.63623)"/>
</clipPath>
</defs>
</svg>
