<svg width="26" height="28" viewBox="0 0 26 28" fill="none" xmlns="http://www.w3.org/2000/svg">
<path d="M0.00977574 9.48127C-0.0714289 7.91823 0.355181 6.37429 1.21847 5.07977L1.44334 4.76147L1.46193 4.74402L1.61805 4.56647L1.7816 4.38518L1.80019 4.36649C2.11242 4.05624 2.45812 3.78337 2.83107 3.55037L2.93638 3.48573L3.0417 3.42577L3.28951 3.28746C3.38987 3.24136 3.49891 3.18654 3.59927 3.14044C3.67237 3.11302 3.74548 3.07689 3.81858 3.04948C3.95611 2.99341 4.10232 2.93859 4.24853 2.89248C4.29809 2.86881 4.35013 2.85012 4.4034 2.83766L4.46257 2.81461L4.52731 2.79156C5.19391 2.59843 5.8791 2.46511 6.57172 2.40406L6.5 2.4122V1.01971C6.5 0.461379 6.96467 0.00993778 7.53935 0.00993778C8.11404 0.00993778 8.58 0.461379 8.58 1.01971V5.42095C8.58 5.97928 8.11404 6.43197 7.53935 6.43197C6.96467 6.43197 6.5 5.97928 6.5 5.42095L6.50007 4.40341C5.81778 4.46962 5.14784 4.63416 4.51244 4.89479C2.87276 5.60974 2.09076 6.97128 2.01666 9.12897L2.01082 9.47629V10.0183H23.9901V9.46259C24.0322 8.4633 23.8253 7.469 23.3867 6.57064C22.9654 5.80187 22.2914 5.20504 21.4774 4.88108C20.9589 4.66478 20.4159 4.51386 19.861 4.43153L19.5 4.389L19.5 5.41587C19.5 5.97179 19.0346 6.42206 18.46 6.42206C17.8854 6.42206 17.42 5.97179 17.42 5.41587L17.42 4.3134L8.59011 4.31416V2.31185L17.42 2.3114L17.42 1.01378C17.4148 0.457864 17.8776 0.0038204 18.4522 2.34428e-05C19.0268 -0.00372603 19.4961 0.442771 19.5 0.998692L19.5009 2.40446C20.0055 2.45272 20.5061 2.53805 20.9987 2.65996L21.4885 2.79405C21.5282 2.80153 21.5579 2.81149 21.6124 2.83018C21.6669 2.84887 21.7128 2.86756 21.7673 2.88501C21.9123 2.93111 22.0473 2.98593 22.1873 3.042C22.2679 3.06941 22.3422 3.10555 22.4054 3.13296C22.5144 3.17906 22.6259 3.23388 22.7151 3.27999C22.8068 3.32609 22.8948 3.37717 22.9716 3.41829C23.0484 3.45941 23.1079 3.50551 23.1724 3.54289C23.453 3.71857 23.7197 3.91669 23.9688 4.1346L24.2119 4.35901L24.2231 4.3777L24.393 4.55245L24.5526 4.73655L24.5613 4.75399C25.4957 6.0065 25.9984 7.52761 26 9.08604L25.9899 9.47629V10.0183H26V20.8742C26 25.6082 23.2723 28 17.8665 28H8.12113C2.72771 28 1.89306e-09 25.6082 1.89306e-09 20.8742V10.0183H0.00977574V9.48127ZM18.9452 19.9448C18.2756 19.9448 17.7425 20.4777 17.7425 21.1345C17.7549 21.7913 18.288 22.3242 18.9452 22.3242C19.6023 22.3242 20.1354 21.7913 20.1354 21.1345C20.1354 20.4777 19.6023 19.9448 18.9452 19.9448ZM13.0062 19.9324C12.3367 19.9448 11.8035 20.4777 11.8035 21.1345C11.8035 21.7913 12.3491 22.3242 13.0062 22.3242C13.6633 22.3242 14.1965 21.7913 14.1965 21.1221C14.1841 20.4777 13.6633 19.9448 13.0062 19.9324ZM7.05484 19.9324C6.38531 19.9324 5.85217 20.4777 5.86457 21.1345C5.86457 21.7913 6.39771 22.3242 7.05484 22.3242C7.71197 22.3242 8.24511 21.7789 8.24511 21.1221C8.24511 20.4653 7.71197 19.9324 7.05484 19.9324ZM18.9452 14.8638C18.2756 14.8638 17.7549 15.3967 17.7549 16.0535C17.7549 16.7103 18.288 17.2432 18.9452 17.2432C19.6023 17.2432 20.1354 16.7103 20.1354 16.0535C20.1354 15.3967 19.6023 14.8638 18.9452 14.8638ZM13.0062 14.8514C12.3367 14.8638 11.8035 15.3967 11.8035 16.0535C11.8035 16.7103 12.3491 17.2432 13.0062 17.2432C13.6633 17.2432 14.1965 16.7103 14.1965 16.0411C14.1965 15.3967 13.6633 14.8638 13.0062 14.8514ZM7.06724 14.8514C6.39771 14.8514 5.86457 15.3967 5.86457 16.0535C5.86457 16.7103 6.39771 17.2432 7.05484 17.2432C7.72437 17.2432 8.25751 16.6979 8.24511 16.0411C8.24511 15.3843 7.71197 14.8514 7.06724 14.8514Z" fill="#081F37"/>
</svg>
