<svg width="31" height="31" viewBox="0 0 31 31" fill="none" xmlns="http://www.w3.org/2000/svg">
<circle cx="15.5" cy="15.5" r="15.5" fill="#13CF97"/>
<path d="M19.0779 9.50136C19.2368 9.34241 19.4255 9.21632 19.6332 9.1303C19.8409 9.04428 20.0635 9 20.2883 9C20.513 9 20.7356 9.04428 20.9433 9.1303C21.151 9.21632 21.3397 9.34241 21.4986 9.50136C21.6576 9.66031 21.7837 9.84901 21.8697 10.0567C21.9557 10.2644 22 10.487 22 10.7117C22 10.9365 21.9557 11.1591 21.8697 11.3668C21.7837 11.5745 21.6576 11.7632 21.4986 11.9221L13.3286 20.0922L10 21L10.9078 17.6714L19.0779 9.50136Z" stroke="white" stroke-linecap="round" stroke-linejoin="round"/>
</svg>
