<svg width="16" height="16" viewBox="0 0 16 16" fill="none" xmlns="http://www.w3.org/2000/svg">
<path d="M6.40909 3.19628C6.80844 3.10351 7.23234 3.0403 7.68182 3.01278C11.7545 2.76343 14.3636 6.23355 15 7.9998C14.7687 8.60401 14.3609 9.39488 13.7398 10.1689M4.00777 4.24676C2.34081 5.37788 1.40276 7.01345 1 7.9998C1.63636 9.86996 4.24545 13.2362 8.31818 12.9869C9.72489 12.9008 10.8811 12.4775 11.8182 11.8918" stroke="#8E98AC" stroke-linecap="round" stroke-linejoin="round"/>
<path d="M6.67478 7C6.2634 7.30876 6 7.7832 6 8.31524C6 9.24571 6.80562 10 7.7994 10C8.26074 10 8.68153 9.83745 9 9.57017" stroke="#8E98AC" stroke-linecap="round" stroke-linejoin="round"/>
<path d="M15 15L1 1" stroke="#8E98AC" stroke-linecap="round" stroke-linejoin="round"/>
</svg>
