<svg width="7" height="12" viewBox="0 0 7 12" fill="none" xmlns="http://www.w3.org/2000/svg">
<path d="M5.11538 1.99999H6.73076C6.87945 1.99999 7 1.88805 7 1.74998V0.249984C7 0.111937 6.87945 0 6.73076 0H5.11538C3.48051 0.00166406 2.15562 1.2319 2.15386 2.74999V4.49999H0.269239C0.120548 4.49999 0 4.61193 0 4.75V6.25C0 6.38807 0.120548 6.5 0.269239 6.5H2.15386V11.75C2.15386 11.8881 2.27441 12 2.4231 12H4.03848C4.18717 12 4.30772 11.8881 4.30772 11.75V6.5H6.19233C6.30816 6.49993 6.41097 6.43105 6.44757 6.329L6.98602 4.82901C7.03301 4.69801 6.95674 4.55645 6.81567 4.51281C6.78831 4.50435 6.75964 4.50001 6.73079 4.49999H4.30772V2.74999C4.30769 2.33578 4.66931 1.99999 5.11538 1.99999Z" fill="white"/>
</svg>
