<svg width="21" height="24" viewBox="0 0 21 24" fill="none" xmlns="http://www.w3.org/2000/svg">
<g id="fa:user" opacity="0.6" clip-path="url(#clip0_1073_2865)">
<path id="Vector" d="M20.5 19.8594C20.5 20.9948 20.1745 21.9688 19.5234 22.7812C18.8724 23.5938 18.0885 24 17.1719 24H3.82812C2.91146 24 2.1276 23.5938 1.47656 22.7812C0.825521 21.9688 0.5 20.9948 0.5 19.8594C0.5 18.974 0.544271 18.138 0.632812 17.3516C0.721354 16.5651 0.885417 15.7734 1.125 14.9766C1.36458 14.1797 1.66927 13.4974 2.03906 12.9297C2.40885 12.362 2.89844 11.8984 3.50781 11.5391C4.11719 11.1797 4.81771 11 5.60938 11C6.97396 12.3333 8.60417 13 10.5 13C12.3958 13 14.026 12.3333 15.3906 11C16.1823 11 16.8828 11.1797 17.4922 11.5391C18.1016 11.8984 18.5911 12.362 18.9609 12.9297C19.3307 13.4974 19.6354 14.1797 19.875 14.9766C20.1146 15.7734 20.2786 16.5651 20.3672 17.3516C20.4557 18.138 20.5 18.974 20.5 19.8594ZM16.5 6C16.5 7.65625 15.9141 9.07031 14.7422 10.2422C13.5703 11.4141 12.1562 12 10.5 12C8.84375 12 7.42969 11.4141 6.25781 10.2422C5.08594 9.07031 4.5 7.65625 4.5 6C4.5 4.34375 5.08594 2.92969 6.25781 1.75781C7.42969 0.585938 8.84375 0 10.5 0C12.1562 0 13.5703 0.585938 14.7422 1.75781C15.9141 2.92969 16.5 4.34375 16.5 6Z" fill="#5256E8"/>
</g>
<defs>
<clipPath id="clip0_1073_2865">
<rect width="20" height="24" fill="white" transform="translate(0.5)"/>
</clipPath>
</defs>
</svg>
