<svg width="30" height="34" viewBox="0 0 30 34" fill="none" xmlns="http://www.w3.org/2000/svg">
<path d="M30 22.0469C30 20.9512 29.1 20.0547 28 20.0547C29.1 20.0547 30 19.1582 30 18.0625C30 16.9668 29.1 16.0703 28 16.0703H19.8001C21.02 12.4245 21 11.2625 21 9.03125C21 7.37368 19.6356 6.04297 18 6.04297H17.4C17.02 6.04297 16.54 6.34186 16.4399 6.8C15.4505 10.637 13.9037 15.04 10 15.9318V30.3461L13.4599 31.4898C14.4799 31.8284 15.54 32.0077 16.62 32.0077H26C27.1046 32.0078 28 31.1158 28 30.0156C28 28.9153 27.1046 28.0234 26 28.0234H28C29.1 28.0234 30 27.127 30 26.0312C30 24.9355 29.1 24.0391 28 24.0391C29.1 24.0391 30 23.1426 30 22.0469Z" fill="url(#paint0_linear_53_32)"/>
<path d="M5 14.0781H1C0.447267 14.0781 0 14.5236 0 15.0742V33.0039C0 33.5545 0.447267 34 1 34H5C6.65427 34 8 32.6595 8 31.0117V17.0664C8 15.4186 6.65427 14.0781 5 14.0781ZM5 30.0156C4.44773 30.0156 4 29.5696 4 29.0195C4 28.4693 4.44773 28.0234 5 28.0234C5.55227 28.0234 6 28.4693 6 29.0195C6 29.5696 5.55227 30.0156 5 30.0156Z" fill="url(#paint1_linear_53_32)"/>
<path d="M13.7569 4.39224L12.3428 2.9837C11.9522 2.59462 11.3193 2.59462 10.9287 2.9837C10.5381 3.37277 10.5381 4.00317 10.9287 4.39224L12.3428 5.80079C12.7334 6.18986 13.3662 6.18986 13.7569 5.80079C14.1475 5.41171 14.1475 4.78132 13.7569 4.39224Z" fill="url(#paint2_linear_53_32)"/>
<path d="M25.0713 2.9837C24.6807 2.59462 24.0478 2.59462 23.6572 2.9837L22.2431 4.39224C21.8525 4.78132 21.8525 5.41171 22.2431 5.80079C22.6337 6.18986 23.2666 6.18986 23.6572 5.80079L25.0713 4.39224C25.4619 4.00317 25.4619 3.37277 25.0713 2.9837Z" fill="url(#paint3_linear_53_32)"/>
<path d="M18 0C17.4399 0 17 0.438215 17 0.996094V3.05469C17 3.61257 17.4399 4.05078 18 4.05078C18.5601 4.05078 19 3.61257 19 3.05469V0.996094C19 0.438215 18.5601 0 18 0Z" fill="url(#paint4_linear_53_32)"/>
<defs>
<linearGradient id="paint0_linear_53_32" x1="1.25" y1="26.2727" x2="26.4291" y2="12.6958" gradientUnits="userSpaceOnUse">
<stop stop-color="#D8DEE5"/>
<stop offset="1" stop-color="#FCFCFD"/>
</linearGradient>
<linearGradient id="paint1_linear_53_32" x1="1.25" y1="26.2727" x2="26.4291" y2="12.6958" gradientUnits="userSpaceOnUse">
<stop stop-color="#D8DEE5"/>
<stop offset="1" stop-color="#FCFCFD"/>
</linearGradient>
<linearGradient id="paint2_linear_53_32" x1="1.25" y1="26.2727" x2="26.4291" y2="12.6958" gradientUnits="userSpaceOnUse">
<stop stop-color="#D8DEE5"/>
<stop offset="1" stop-color="#FCFCFD"/>
</linearGradient>
<linearGradient id="paint3_linear_53_32" x1="1.25" y1="26.2727" x2="26.4291" y2="12.6958" gradientUnits="userSpaceOnUse">
<stop stop-color="#D8DEE5"/>
<stop offset="1" stop-color="#FCFCFD"/>
</linearGradient>
<linearGradient id="paint4_linear_53_32" x1="1.25" y1="26.2727" x2="26.4291" y2="12.6958" gradientUnits="userSpaceOnUse">
<stop stop-color="#D8DEE5"/>
<stop offset="1" stop-color="#FCFCFD"/>
</linearGradient>
</defs>
</svg>
