<svg width="12" height="12" viewBox="0 0 12 12" fill="none" xmlns="http://www.w3.org/2000/svg">
<path d="M2.8125 6.00002C2.8125 5.40548 2.9763 4.84853 3.26088 4.37165V2.34881H1.23804C0.435188 3.39149 0 4.66225 0 6.00002C0 7.33778 0.435188 8.60854 1.23804 9.65123H3.26088V7.62838C2.9763 7.1515 2.8125 6.59456 2.8125 6.00002Z" fill="white"/>
<path d="M6 9.1875L4.59375 10.5938L6 12C7.33779 12 8.60852 11.5648 9.65121 10.762V8.74127H7.63052C7.14947 9.02688 6.59018 9.1875 6 9.1875Z" fill="white"/>
<path d="M3.26088 7.62838L1.23804 9.65123C1.39699 9.85767 1.56994 10.0553 1.75723 10.2427C2.89048 11.3759 4.39734 12 6 12V9.1875C4.83694 9.1875 3.81757 8.56127 3.26088 7.62838Z" fill="white"/>
<path d="M12 6.00002C12 5.63498 11.967 5.26926 11.9018 4.91306L11.849 4.6248H6V7.4373H8.84653C8.57011 7.98717 8.14512 8.43574 7.63052 8.74127L9.65121 10.762C9.85765 10.603 10.0553 10.43 10.2426 10.2427C11.3759 9.1094 12 7.60267 12 6.00002Z" fill="white"/>
<path d="M8.25391 3.74609L8.50249 3.99466L10.4912 2.00595L10.2427 1.75737C9.10941 0.624117 7.60268 0 6 0L4.59375 1.40625L6 2.8125C6.85139 2.8125 7.65185 3.14405 8.25391 3.74609Z" fill="white"/>
<path d="M6 2.8125V0C4.39734 0 2.89046 0.624117 1.75719 1.75734C1.5699 1.94463 1.39699 2.14235 1.23804 2.34881L3.26088 4.37165C3.81759 3.43877 4.83694 2.8125 6 2.8125Z" fill="white"/>
</svg>
