<svg width="44" height="44" viewBox="0 0 44 44" fill="none" xmlns="http://www.w3.org/2000/svg">
<circle cx="22" cy="22" r="22" fill="#081F37"/>
<path d="M15.6936 28.4236L15.1387 21.795L15 20.2627L20.5838 14.8499C21.222 14.1438 22.1676 13.9894 22.5607 14.0005C23.5318 14.0538 24.1561 14.5113 24.3468 14.7334L30 20.1628L29.8266 21.695L29.3064 28.5568C29.1538 29.5827 28.2601 29.9391 27.8324 29.9891H25.6647C25.3734 29.9758 25.3006 29.7282 25.3006 29.606V24.7095C25.1896 23.4438 24.1676 23.0829 23.6705 23.0607H21.4682C20.0532 23.1407 19.7341 24.2377 19.7514 24.7762L19.7341 29.4895C19.8173 29.9558 19.4682 30.0169 19.2832 29.9891H17.5491C16.148 30.1223 15.7283 29.0009 15.6936 28.4236Z" fill="#E7EAEF"/>
</svg>
