<svg width="13" height="15" viewBox="0 0 13 15" fill="none" xmlns="http://www.w3.org/2000/svg">
<path d="M6.50001 0.0625C4.95071 0.0643278 3.46539 0.680594 2.36987 1.77611C1.27435 2.87163 0.658084 4.35695 0.656256 5.90625C0.654401 7.17234 1.06796 8.40407 1.83351 9.4125C1.83351 9.4125 1.99288 9.62234 2.01891 9.65263L6.50001 14.9375L10.9832 9.64997C11.0066 9.62181 11.1665 9.4125 11.1665 9.4125L11.167 9.41091C11.9322 8.40292 12.3456 7.17176 12.3438 5.90625C12.3419 4.35695 11.7257 2.87163 10.6301 1.77611C9.53462 0.680594 8.0493 0.0643278 6.50001 0.0625ZM6.50001 8.03125C6.07972 8.03125 5.66887 7.90662 5.31942 7.67312C4.96996 7.43962 4.6976 7.10775 4.53676 6.71945C4.37593 6.33116 4.33384 5.90389 4.41584 5.49168C4.49783 5.07947 4.70022 4.70083 4.9974 4.40365C5.29459 4.10646 5.67323 3.90407 6.08544 3.82208C6.49765 3.74009 6.92491 3.78217 7.31321 3.94301C7.7015 4.10384 8.03338 4.37621 8.26688 4.72566C8.50038 5.07512 8.62501 5.48596 8.62501 5.90625C8.6243 6.46962 8.40019 7.00971 8.00183 7.40808C7.60347 7.80644 7.06338 8.03055 6.50001 8.03125Z" fill="#67CE67"/>
</svg>
