<svg width="24" height="28" viewBox="0 0 24 28" fill="none" xmlns="http://www.w3.org/2000/svg">
<path d="M12.0422 2.78271e-05C15.2328 0.0140575 18.2822 1.27421 20.5127 3.48648C22.7574 5.71276 24.0139 8.72313 23.9999 11.8455V11.9155C23.9151 16.158 21.5151 20.0645 18.5222 23.1169C16.8281 24.8391 14.9504 26.3653 12.9034 27.6535C12.3528 28.1155 11.5481 28.1155 10.9975 27.6535C7.96228 25.6932 5.27995 23.2289 3.10585 20.3586C1.19999 17.8663 0.11294 14.8699 0 11.7475C0.028235 5.2367 5.42112 -0.013946 12.0422 2.78271e-05ZM12.0422 8.30308C9.93873 8.30308 8.24463 9.96928 8.24463 12.0415C8.24463 14.0872 9.91049 15.738 11.9999 15.766H12.0422C13.0446 15.766 14.0046 15.3879 14.7104 14.7019C15.4446 13.9878 15.8554 13.0371 15.8554 12.0415C15.8554 9.96928 14.1457 8.30308 12.0422 8.30308Z" fill="url(#paint0_linear_3851_795)"/>
<defs>
<linearGradient id="paint0_linear_3851_795" x1="1" y1="21.6364" x2="21.4021" y2="10.9495" gradientUnits="userSpaceOnUse">
<stop stop-color="#D8DEE5"/>
<stop offset="1" stop-color="#FCFCFD"/>
</linearGradient>
</defs>
</svg>
