<svg width="33" height="33" viewBox="0 0 33 33" fill="none" xmlns="http://www.w3.org/2000/svg">
<circle cx="16.5" cy="16.5" r="16" stroke="#8E98AC"/>
<path d="M16.5229 9.00001C18.2511 9.00753 19.9028 9.68261 21.1111 10.8678C22.3269 12.0604 23.0075 13.6731 22.9999 15.3458V15.3833C22.954 17.6561 21.654 19.7489 20.0328 21.3841C19.1152 22.3067 18.0982 23.1243 16.9893 23.8144C16.6911 24.0619 16.2552 24.0619 15.957 23.8144C14.3129 22.7642 12.86 21.4441 11.6823 19.9064C10.65 18.5712 10.0612 16.966 10 15.2933C10.0153 11.8054 12.9364 8.99253 16.5229 9.00001ZM16.5229 13.4481C15.3835 13.4481 14.4658 14.3407 14.4658 15.4508C14.4658 16.5467 15.3682 17.4311 16.4999 17.4461H16.5229C17.0658 17.4461 17.5858 17.2435 17.9682 16.876C18.3658 16.4935 18.5883 15.9841 18.5883 15.4508C18.5883 14.3407 17.6623 13.4481 16.5229 13.4481Z" fill="#00AFCD"/>
</svg>
