<svg width="8" height="8" viewBox="0 0 8 8" fill="none" xmlns="http://www.w3.org/2000/svg">
<path d="M5.97053 0C6.50648 0 7.02204 0.21182 7.40132 0.591898C7.781 0.971176 7.99322 1.48274 7.99322 2.01829V5.17561C7.99322 6.29066 7.08599 7.1939 5.97053 7.1939H2.02228C0.906831 7.1939 0 6.29066 0 5.17561V2.01829C0 0.903234 0.902834 0 2.02228 0H5.97053ZM6.42255 2.07824C6.33862 2.07384 6.25869 2.10222 6.19834 2.15817L4.39627 3.59695C4.16447 3.78918 3.83235 3.78918 3.59695 3.59695L1.79847 2.15817C1.67418 2.06625 1.50233 2.07824 1.39881 2.18615C1.2909 2.29405 1.27891 2.46591 1.37044 2.58581L1.42279 2.63776L3.24125 4.05656C3.46506 4.23241 3.73643 4.32833 4.02059 4.32833C4.30395 4.32833 4.58011 4.23241 4.80352 4.05656L6.60639 2.61378L6.63837 2.58181C6.73389 2.46591 6.73389 2.29805 6.63397 2.18215C6.57842 2.1226 6.50208 2.08623 6.42255 2.07824Z" fill="#E7EAEF"/>
</svg>
