<svg width="14" height="20" viewBox="0 0 14 20" fill="none" xmlns="http://www.w3.org/2000/svg">
<path fill-rule="evenodd" clip-rule="evenodd" d="M3.84615 0C1.72198 0 0 1.67279 0 3.73627V16.2637C0 18.3272 1.72198 20 3.84615 20H10.1538C12.278 20 14 18.3272 14 16.2637V3.73626C14 1.67278 12.278 0 10.1538 0H3.84615ZM4.80443 3.59999C3.74235 3.59999 2.88136 4.43638 2.88136 5.46812V12.9319C2.88136 13.9636 3.74235 14.8 4.80443 14.8H9.19357C10.2557 14.8 11.1166 13.9636 11.1166 12.9319V5.46812C11.1166 4.43638 10.2557 3.59999 9.19357 3.59999H4.80443Z" fill="#E7EAEF"/>
</svg>
