<svg width="8" height="11" viewBox="0 0 8 11" fill="none" xmlns="http://www.w3.org/2000/svg">
<path fill-rule="evenodd" clip-rule="evenodd" d="M0 2C0 0.895432 0.895431 0 2 0H5.28C6.38457 0 7.28 0.895431 7.28 2V8.70588C7.28 9.81045 6.38457 10.7059 5.28 10.7059H2C0.895431 10.7059 0 9.81045 0 8.70588V2ZM1.4983 2.92705C1.4983 2.37477 1.94602 1.92705 2.4983 1.92705H4.78066C5.33294 1.92705 5.78066 2.37477 5.78066 2.92705V6.92235C5.78066 7.47463 5.33294 7.92235 4.78066 7.92235H2.4983C1.94602 7.92235 1.4983 7.47463 1.4983 6.92235V2.92705ZM3.74731 9.84941C4.04294 9.84941 4.2826 9.60975 4.2826 9.31412C4.2826 9.01848 4.04294 8.77882 3.74731 8.77882C3.45167 8.77882 3.21202 9.01848 3.21202 9.31412C3.21202 9.60975 3.45167 9.84941 3.74731 9.84941Z" fill="#E7EAEF"/>
</svg>
