<svg width="18" height="16" viewBox="0 0 18 16" fill="none" xmlns="http://www.w3.org/2000/svg">
<path d="M17.4113 12.6445C17.802 11.8601 17.9999 11.0189 17.9999 10.1412C17.9999 7.00813 15.3877 4.44188 12.1167 4.2912C11.3796 1.76326 8.95817 0 6.18764 0C2.7759 0 0.000270923 2.62751 0.000270923 5.85713C0.000270923 6.73482 0.198196 7.57607 0.588844 8.36043L0.0105012 11.1138C-0.0631144 11.4643 0.261652 11.7741 0.629871 11.7047L3.55758 11.1536C4.291 11.4849 5.07117 11.6699 5.88382 11.7069C6.90854 15.2195 11.0242 16.9814 14.4425 15.4377C17.6489 16.0412 17.3989 15.9983 17.4725 15.9983C17.8058 15.9983 18.0547 15.7076 17.9896 15.3978L17.4113 12.6445ZM3.87047 10.1812C3.76497 10.1298 3.64431 10.1138 3.52816 10.1357L1.19946 10.574L1.6582 8.39015C1.68151 8.2792 1.66478 8.16393 1.6106 8.06315C1.24193 7.3765 1.05494 6.63432 1.05494 5.85713C1.05494 3.18115 3.35744 1.00408 6.18764 1.00408C8.39944 1.00408 10.3472 2.37331 11.0279 4.33149C7.80391 4.72392 5.37576 7.49341 5.68727 10.687C5.05183 10.6289 4.44308 10.4599 3.87047 10.1812ZM16.342 12.6742L16.8007 14.8581L14.472 14.4197C14.3558 14.3979 14.2352 14.4139 14.1297 14.4652C13.4085 14.8162 12.6289 14.9942 11.8125 14.9942C9.00176 14.9942 6.715 12.8172 6.715 10.1412C6.715 7.46522 9.00176 5.28815 11.8125 5.28815C14.6427 5.28815 16.9452 7.46522 16.9452 10.1412C16.9452 10.9184 16.7583 11.6606 16.3896 12.3472C16.3354 12.448 16.3187 12.5632 16.342 12.6742Z" fill="black"/>
</svg>
