<svg width="16" height="16" viewBox="0 0 16 16" fill="none" xmlns="http://www.w3.org/2000/svg">
<path d="M7.99998 8.42678C7.76188 8.4277 7.53068 8.50681 7.34191 8.65192C7.15314 8.79704 7.01726 9.00014 6.95516 9.23C6.89305 9.45986 6.90816 9.70376 6.99816 9.92419C7.08817 10.1446 7.24808 10.3294 7.45331 10.4501V12.0001H8.55998V10.4501C8.72236 10.3541 8.85712 10.2176 8.95116 10.0541C9.0452 9.89053 9.09532 9.70543 9.09665 9.51678C9.09665 9.37307 9.06824 9.23079 9.01304 9.09811C8.95785 8.96543 8.87696 8.84497 8.77504 8.74367C8.67312 8.64236 8.55217 8.56221 8.41915 8.50783C8.28614 8.45344 8.14368 8.4259 7.99998 8.42678Z" stroke="#5256E8" stroke-width="0.8" stroke-linecap="round" stroke-linejoin="round"/>
<path d="M12.0967 5.92334H3.90002C3.10473 5.92334 2.46002 6.56805 2.46002 7.36334V13.06C2.46002 13.8553 3.10473 14.5 3.90002 14.5H12.0967C12.892 14.5 13.5367 13.8553 13.5367 13.06V7.36334C13.5367 6.56805 12.892 5.92334 12.0967 5.92334Z" stroke="#5256E8" stroke-width="0.8" stroke-linecap="round" stroke-linejoin="round"/>
<path d="M4.45001 5.92333V5.05333C4.45001 4.11093 4.82438 3.20713 5.49076 2.54075C6.15714 1.87437 7.06094 1.5 8.00335 1.5C8.94575 1.5 9.84955 1.87437 10.5159 2.54075C11.1823 3.20713 11.5567 4.11093 11.5567 5.05333V5.92333" stroke="#5256E8" stroke-width="0.8" stroke-linecap="round" stroke-linejoin="round"/>
</svg>
