<svg width="52" height="65" viewBox="0 0 52 65" fill="none" xmlns="http://www.w3.org/2000/svg">
<path d="M19.0078 44.0376C23.6868 43.6605 28.3873 43.6605 33.0663 44.0376C35.6142 44.1861 38.1501 44.5048 40.6579 44.9917C46.0844 46.0905 49.6272 47.8832 51.1455 50.7747C52.2858 53.0314 52.2858 55.7179 51.1455 57.9746C49.6272 60.8661 46.225 62.7745 40.6016 63.7576C38.0958 64.2629 35.5594 64.5913 33.01 64.7407C30.6482 65.0009 28.2864 65.0009 25.8964 65.0009H21.5945C20.6948 64.8853 19.8232 64.8274 18.9797 64.8274C16.4302 64.6963 13.8932 64.3774 11.3881 63.8732C5.9615 62.8323 2.41876 60.9817 0.900441 58.0902C0.314316 56.9702 0.00531084 55.7189 0.000338713 54.447C-0.0115192 53.1672 0.288141 51.9048 0.872324 50.7747C2.36252 47.8832 5.90526 46.0038 11.3881 44.9917C13.9042 44.4979 16.4499 44.1791 19.0078 44.0376ZM26.0089 0C35.4348 0 43.0759 7.85803 43.0759 17.5514C43.0759 27.2448 35.4348 35.1028 26.0089 35.1028C16.5831 35.1028 8.9419 27.2448 8.9419 17.5514C8.9419 7.85803 16.5831 0 26.0089 0Z" fill="#13CF97"/>
</svg>
