<svg width="14" height="14" viewBox="0 0 14 14" fill="none" xmlns="http://www.w3.org/2000/svg">
<path d="M12.8766 9.1894C12.0195 9.1894 11.1779 9.05534 10.3804 8.79178C9.98274 8.65619 9.53004 8.76141 9.27064 9.02573L7.69648 10.2141C5.87091 9.23956 4.74639 8.11541 3.7852 6.30354L4.93856 4.77039C5.23821 4.47114 5.34569 4.03401 5.21692 3.62385C4.95223 2.82213 4.81777 1.98093 4.81777 1.12343C4.81781 0.503964 4.31385 0 3.69442 0H1.12335C0.503962 0 0 0.503964 0 1.12335C0 8.22365 5.77637 14 12.8766 14C13.496 14 14 13.496 14 12.8766V10.3127C14 9.69336 13.496 9.1894 12.8766 9.1894ZM13.2222 12.8766C13.2222 13.0673 13.0673 13.2222 12.8766 13.2222C6.20512 13.2222 0.7778 7.79486 0.7778 1.12339C0.7778 0.93275 0.932748 0.777802 1.12339 0.777802H3.69446C3.8851 0.777802 4.04005 0.93275 4.04005 1.12339C4.04005 2.06409 4.18778 2.98732 4.47678 3.86196C4.51703 3.99109 4.48436 4.12475 4.35373 4.26074L3.01692 6.03119C2.9273 6.15005 2.91323 6.30919 2.98046 6.44171C4.07155 8.5863 5.39735 9.91211 7.5571 11.0188C7.6885 11.0875 7.84953 11.0731 7.96879 10.9831L9.77992 9.61096C9.87143 9.51945 10.0086 9.48679 10.1324 9.52893C11.013 9.81983 11.9363 9.9672 12.8766 9.9672C13.0673 9.9672 13.2222 10.1221 13.2222 10.3128V12.8766Z" fill="black"/>
</svg>
