<svg width="16" height="16" viewBox="0 0 16 16" fill="none" xmlns="http://www.w3.org/2000/svg">
<path d="M5.58963 1.65274L5.01603 1.82554C4.50529 1.97956 4.04918 2.27628 3.70138 2.68077C3.35358 3.08526 3.12857 3.58069 3.05282 4.10874C2.81522 5.76314 3.34642 7.69754 4.62722 9.91594C5.90482 12.1287 7.31123 13.5543 8.85923 14.1783C9.35661 14.3788 9.90109 14.4322 10.4279 14.3322C10.9548 14.2323 11.4419 13.9831 11.8312 13.6143L12.2648 13.2031C12.5464 12.9367 12.7216 12.577 12.758 12.1911C12.7943 11.8051 12.6893 11.4191 12.4624 11.1047L11.3776 9.60074C11.231 9.3977 11.0244 9.24563 10.787 9.16587C10.5496 9.0861 10.2931 9.08263 10.0536 9.15594L8.41282 9.65754L8.37043 9.66554C8.18963 9.69194 7.77202 9.30074 7.25202 8.39994C6.70802 7.45754 6.59602 6.90634 6.74563 6.76394L7.58003 5.98554C7.88516 5.70111 8.09359 5.3283 8.17609 4.9194C8.25858 4.5105 8.211 4.08603 8.04003 3.70554L7.51042 2.52874C7.35117 2.17462 7.06858 1.89048 6.71533 1.72931C6.36207 1.56814 5.96146 1.54092 5.58963 1.65274ZM6.78242 2.85674L7.31042 4.03354C7.41325 4.26173 7.44201 4.51639 7.39265 4.76176C7.34329 5.00713 7.21829 5.23087 7.03522 5.40154L6.19843 6.18074C5.66243 6.68794 5.84002 7.55354 6.56002 8.79994C7.23682 9.97274 7.85442 10.5519 8.51842 10.4511L8.61763 10.4303L10.288 9.92074C10.3679 9.89622 10.4534 9.8973 10.5326 9.92384C10.6118 9.95039 10.6807 10.0011 10.7296 10.0687L11.8144 11.5727C11.928 11.7299 11.9807 11.923 11.9626 12.116C11.9445 12.3091 11.8568 12.489 11.716 12.6223L11.2816 13.0335C11.0035 13.2968 10.6557 13.4746 10.2794 13.5459C9.9032 13.6173 9.5144 13.5791 9.15922 13.4359C7.80083 12.8887 6.51682 11.5871 5.32083 9.51594C4.12163 7.43994 3.63603 5.67434 3.84483 4.22234C3.89887 3.84509 4.05959 3.49113 4.30804 3.20214C4.55649 2.91315 4.88234 2.70116 5.24723 2.59114L5.82083 2.41834C6.00679 2.36246 6.20673 2.37613 6.38337 2.45679C6.56 2.53745 6.70127 2.67961 6.78082 2.85674" fill="#5256E8"/>
</svg>
