<svg width="16" height="16" viewBox="0 0 16 16" fill="none" xmlns="http://www.w3.org/2000/svg">
<path d="M7.66664 7.64067C7.66664 7.46533 7.82464 7.33333 7.99997 7.33333C8.1753 7.33333 8.3333 7.46533 8.3333 7.64067V13.6667C8.3333 13.7551 8.29819 13.8399 8.23567 13.9024C8.17316 13.9649 8.08838 14 7.99997 14C7.91157 14 7.82678 13.9649 7.76427 13.9024C7.70176 13.8399 7.66664 13.7551 7.66664 13.6667V7.64067ZM9.3333 5.33333C9.33327 5.03771 9.23503 4.75047 9.05403 4.51674C8.87303 4.28301 8.61951 4.11602 8.3333 4.042V2.33333C8.3333 2.24493 8.29819 2.16014 8.23567 2.09763C8.17316 2.03512 8.08838 2 7.99997 2C7.91157 2 7.82678 2.03512 7.76427 2.09763C7.70176 2.16014 7.66664 2.24493 7.66664 2.33333V4.042C7.35314 4.12391 7.08017 4.31712 6.89871 4.58556C6.71724 4.85399 6.63967 5.1793 6.68049 5.50074C6.72132 5.82218 6.87774 6.11777 7.12054 6.33232C7.36335 6.54688 7.67595 6.66572 7.99997 6.66667C8.35359 6.66667 8.69273 6.52619 8.94278 6.27614C9.19283 6.02609 9.3333 5.68696 9.3333 5.33333ZM3.99997 12C4.32473 12.0003 4.63843 11.8821 4.88221 11.6675C5.12599 11.453 5.28308 11.1568 5.324 10.8347C5.36491 10.5125 5.28684 10.1865 5.10444 9.91777C4.92203 9.64908 4.64783 9.4562 4.33331 9.37533V2.33333C4.33331 2.24493 4.29819 2.16014 4.23567 2.09763C4.17316 2.03512 4.08838 2 3.99997 2C3.91157 2 3.82678 2.03512 3.76427 2.09763C3.70176 2.16014 3.66664 2.24493 3.66664 2.33333V9.37533C3.35314 9.45724 3.08018 9.65045 2.89871 9.91889C2.71724 10.1873 2.63967 10.5126 2.68049 10.8341C2.72132 11.1555 2.87774 11.4511 3.12055 11.6657C3.36335 11.8802 3.67595 11.9991 3.99997 12ZM12 11C11.8246 11 11.6666 11.132 11.6666 11.3073V13.6667C11.6666 13.7551 11.7018 13.8399 11.7643 13.9024C11.8268 13.9649 11.9116 14 12 14C12.0884 14 12.1732 13.9649 12.2357 13.9024C12.2982 13.8399 12.3333 13.7551 12.3333 13.6667V11.3073C12.3333 11.132 12.1753 11 12 11ZM12.3333 7.70867C12.6468 7.79058 12.9198 7.98379 13.1012 8.25222C13.2827 8.52066 13.3603 8.84597 13.3194 9.16741C13.2786 9.48885 13.1222 9.78444 12.8794 9.99899C12.6366 10.2135 12.324 10.3324 12 10.3333C11.6752 10.3337 11.3615 10.2154 11.1177 10.0009C10.8739 9.78631 10.7169 9.49015 10.6759 9.16799C10.635 8.84582 10.7131 8.51979 10.8955 8.2511C11.0779 7.98241 11.3521 7.78953 11.6666 7.70867V2.33333C11.6666 2.24493 11.7018 2.16014 11.7643 2.09763C11.8268 2.03512 11.9116 2 12 2C12.0884 2 12.1732 2.03512 12.2357 2.09763C12.2982 2.16014 12.3333 2.24493 12.3333 2.33333V7.70867ZM3.66664 12.974C3.66664 12.7987 3.82464 12.6667 3.99997 12.6667C4.17531 12.6667 4.33331 12.7987 4.33331 12.974V13.6667C4.33331 13.7551 4.29819 13.8399 4.23567 13.9024C4.17316 13.9649 4.08838 14 3.99997 14C3.91157 14 3.82678 13.9649 3.76427 13.9024C3.70176 13.8399 3.66664 13.7551 3.66664 13.6667V12.974Z" fill="#5256E8"/>
</svg>
