<svg width="17" height="12" viewBox="0 0 17 12" fill="none" xmlns="http://www.w3.org/2000/svg">
<path d="M11.8105 6.56318C11.3509 6.56689 10.9754 6.21109 10.9718 5.76849C10.9682 5.3259 11.3379 4.96408 11.7976 4.96037C12.2573 4.95666 12.6328 5.31246 12.6363 5.75505C12.6399 6.19765 12.2702 6.55946 11.8105 6.56318Z" fill="url(#paint0_linear_48:234)"/>
<path fill-rule="evenodd" clip-rule="evenodd" d="M16.5112 5.36319C16.7083 5.60091 16.711 5.93772 16.5178 6.17859L12.388 11.3255C12.3052 11.4287 12.204 11.4988 12.0955 11.5397L12.0957 11.5582L12.0372 11.5587C11.9179 11.5915 11.7924 11.591 11.6749 11.5616L2.30424 11.6372C1.22272 11.646 0.339143 10.8088 0.330735 9.76738L0.268324 2.0362C0.259917 0.994758 1.12986 0.143463 2.21139 0.134732L11.5821 0.0590858C11.6991 0.0277552 11.8245 0.0252697 11.9443 0.0561615L12.0028 0.0556892L12.003 0.0741959C12.1121 0.113277 12.2144 0.181786 12.2989 0.283589L16.5112 5.36319ZM5.31775 2.84403C5.56111 2.84207 5.7599 3.03042 5.76179 3.26475L5.80442 8.54458C5.80631 8.77891 5.61058 8.97045 5.36723 8.97241C5.1239 8.97438 4.92508 8.78602 4.92319 8.5517L4.88057 3.27186C4.87867 3.03754 5.07443 2.846 5.31775 2.84403ZM3.5553 2.85826C3.79865 2.8563 3.99745 3.04465 3.99934 3.27898L4.04196 8.55881C4.04385 8.79314 3.84812 8.98468 3.60477 8.98664C3.36144 8.9886 3.16262 8.80025 3.16073 8.56592L3.11811 3.28609C3.11622 3.05176 3.31197 2.86023 3.5553 2.85826ZM11.8181 7.506C10.8177 7.51408 10.0004 6.73966 9.99265 5.77639C9.98488 4.81313 10.7896 4.02562 11.79 4.01754C12.7904 4.00946 13.6077 4.78388 13.6155 5.74715C13.6233 6.71042 12.8186 7.49793 11.8181 7.506Z" fill="url(#paint1_linear_48:234)"/>
<defs>
<linearGradient id="paint0_linear_48:234" x1="2.31556" y1="2.2377" x2="9.44467" y2="12.7997" gradientUnits="userSpaceOnUse">
<stop stop-color="#00AFCD"/>
<stop offset="1" stop-color="#35D2ED"/>
</linearGradient>
<linearGradient id="paint1_linear_48:234" x1="2.31556" y1="2.2377" x2="9.44467" y2="12.7997" gradientUnits="userSpaceOnUse">
<stop stop-color="#00AFCD"/>
<stop offset="1" stop-color="#35D2ED"/>
</linearGradient>
</defs>
</svg>
