<svg width="8" height="12" viewBox="0 0 8 12" fill="none" xmlns="http://www.w3.org/2000/svg">
<path d="M7.39762 8.52258C7.50181 8.14123 7.55556 7.752 7.55556 7.36109C7.55556 6.92895 7.49394 6.5017 7.3724 6.09131L6.87152 4.40088C6.70269 3.83154 6.29773 3.40528 5.78775 3.26074C5.60369 3.20871 5.36963 3.15375 5.1111 3.10676V2.50001H5.33333C5.57856 2.50001 5.77777 2.27564 5.77777 2.00002V1.00001C5.77777 0.448477 5.37892 0 4.8889 0H3.11112C2.6211 0 2.22223 0.448477 2.22223 1.00001V2.00002C2.22223 2.27564 2.42146 2.50001 2.66667 2.50001H2.8889V3.10676C2.63038 3.15375 2.39629 3.20871 2.21225 3.26074C1.70227 3.40528 1.29731 3.83154 1.12848 4.40088L0.627604 6.09131C0.506083 6.5017 0.444438 6.92897 0.444438 7.36109C0.444438 7.75202 0.498208 8.14123 0.602396 8.52258C0.258375 8.60984 0 8.95502 0 9.36792C0 9.76685 0.0677083 10.7393 0.224833 11.1795L0.3225 11.4544C0.440104 11.7859 0.721354 12 1.03863 12H6.99392C7.28775 12 7.55208 11.8164 7.68402 11.5203C7.90713 11.0173 8 9.96534 8 9.51391V9.36792C8 8.95502 7.74165 8.60986 7.39762 8.52258ZM2.66667 2.00002V1.00001C2.66667 0.724383 2.8659 0.500016 3.1111 0.500016H4.88888C5.1341 0.500016 5.33331 0.724383 5.33331 1.00001V2.00002H2.66667ZM4.66667 2.50001V3.04252C4.4534 3.01823 4.23252 3 4 3C3.76748 3 3.5466 3.01821 3.33333 3.04252V2.50001H4.66667ZM1.04948 6.24952L1.55035 4.55909C1.67058 4.15209 1.95877 3.84816 2.32075 3.74562C2.71658 3.63356 3.32987 3.50002 4 3.50002C4.67013 3.50002 5.28342 3.63356 5.67925 3.74562C6.04123 3.84816 6.32942 4.15212 6.44965 4.55909L6.95052 6.24952C7.05729 6.60888 7.1111 6.98292 7.1111 7.36109C7.1111 7.7742 7.04035 8.1858 6.90644 8.5872C6.75115 8.66801 6.61854 8.79942 6.53819 8.97975L6.33375 9.43948C6.26921 9.41496 6.18496 9.3855 6.09252 9.35461L6.3841 8.709C6.569 8.29249 6.66667 7.82644 6.66667 7.36111C6.66667 7.03664 6.62023 6.71585 6.52908 6.40748L6.02821 4.71755C5.95702 4.47682 5.7821 4.2903 5.57075 4.23049C5.19879 4.12526 4.62413 4.00003 4 4.00003C3.37629 4.00003 2.80121 4.12528 2.42881 4.23049C2.21788 4.2903 2.04296 4.47659 1.97177 4.71659L1.4709 6.40751C1.37975 6.71585 1.33331 7.03666 1.33331 7.36113C1.33331 7.82646 1.43098 8.29277 1.61717 8.71172L1.90746 9.35461C1.815 9.3855 1.73075 9.41498 1.66623 9.4395L1.46179 8.97954C1.38144 8.79933 1.24881 8.66798 1.09352 8.5872C0.959604 8.18576 0.888875 7.7742 0.888875 7.36111C0.888896 6.98292 0.942708 6.60888 1.04948 6.24952ZM5.98742 8.48414L5.65329 9.22413C5.20885 9.1073 4.63171 9 4 9C3.36829 9 2.79115 9.1073 2.34673 9.22413L2.01388 8.48684C1.85935 8.13844 1.77777 7.74928 1.77777 7.36111C1.77777 7.09059 1.8164 6.82303 1.89279 6.56569L2.39367 4.87453C2.41667 4.79616 2.4731 4.73341 2.53733 4.71534C2.88542 4.61719 3.42144 4.5 4 4.5C4.579 4.5 5.11458 4.61719 5.46225 4.71534C5.52648 4.73365 5.58333 4.79616 5.60635 4.87526L6.10723 6.56569C6.18363 6.82301 6.22225 7.09059 6.22225 7.36111C6.22223 7.74926 6.14062 8.13818 5.98742 8.48414ZM7.55556 9.51391C7.55556 10.0051 7.45312 10.9211 7.28646 11.2964C7.23046 11.4219 7.11848 11.5 6.99392 11.5H1.03863C0.904083 11.5 0.784708 11.4092 0.734813 11.2688L0.637146 10.9936C0.519521 10.6633 0.444438 9.81005 0.444438 9.3679C0.444438 9.16502 0.591146 8.99998 0.771688 8.99998C0.89625 8.99998 1.00823 9.07809 1.06423 9.20334L1.35677 9.8618C1.40842 9.978 1.53169 10.0307 1.63802 9.98215C1.64887 9.97727 2.7244 9.49997 4 9.49997C5.27171 9.49997 6.35113 9.97727 6.36198 9.98215C6.46788 10.0293 6.59158 9.97823 6.64323 9.8618L6.93577 9.2036C6.99177 9.07812 7.10375 8.99998 7.22831 8.99998C7.40888 8.99998 7.55556 9.16502 7.55556 9.3679V9.51391Z" fill="#081F37"/>
<path d="M6.43273 10.4219C6.3941 10.2905 6.26694 10.2195 6.15277 10.2627C6.14627 10.2649 5.48829 10.5 4 10.5C2.51171 10.5 1.85373 10.2649 1.84723 10.2627C1.73265 10.2195 1.60548 10.2905 1.56727 10.4219C1.52865 10.5527 1.59115 10.6936 1.70746 10.7371C1.7361 10.7478 2.42665 11 4 11C5.57335 11 6.2639 10.7478 6.29254 10.7371C6.40885 10.6936 6.47135 10.5527 6.43273 10.4219Z" fill="#081F37"/>
</svg>
