<svg width="12" height="14" viewBox="0 0 12 14" fill="none" xmlns="http://www.w3.org/2000/svg">
<path d="M4.38635 9.48487C5.4661 9.40366 6.55082 9.40366 7.63057 9.48487C8.21855 9.51687 8.80375 9.58552 9.38245 9.69039C10.6347 9.92705 11.4523 10.3132 11.8026 10.9359C12.0658 11.422 12.0658 12.0006 11.8026 12.4867C11.4523 13.1094 10.6672 13.5205 9.36947 13.7322C8.79122 13.841 8.2059 13.9118 7.61759 13.944C7.07256 14 6.52753 14 5.97602 14H4.98328C4.77565 13.9751 4.57451 13.9626 4.37986 13.9626C3.79153 13.9344 3.20607 13.8657 2.62798 13.7571C1.37571 13.5329 0.558167 13.1343 0.207791 12.5116C0.0725334 12.2703 0.00122556 12.0008 7.81634e-05 11.7269C-0.00265823 11.4512 0.0664931 11.1793 0.201303 10.9359C0.54519 10.3132 1.36273 9.90836 2.62798 9.69039C3.20862 9.58402 3.79608 9.51536 4.38635 9.48487ZM6.00197 0C8.17713 0 9.94045 1.69248 9.94045 3.78025C9.94045 5.86802 8.17713 7.5605 6.00197 7.5605C3.8268 7.5605 2.06349 5.86802 2.06349 3.78025C2.06349 1.69248 3.8268 0 6.00197 0Z" fill="url(#paint0_linear)"/>
<defs>
<linearGradient id="paint0_linear" x1="0.5" y1="10.8182" x2="10.7011" y2="5.47477" gradientUnits="userSpaceOnUse">
<stop stop-color="#D8DEE5"/>
<stop offset="1" stop-color="#FCFCFD"/>
</linearGradient>
</defs>
</svg>
