<svg width="18" height="12" viewBox="0 0 18 12" fill="none" xmlns="http://www.w3.org/2000/svg">
<path d="M16.875 12C16.6365 12 16.398 11.9235 16.2 11.775L13.476 9.73207C13.302 11.0115 12.201 12 10.875 12H2.625C1.1775 12 0 10.8225 0 9.37509V2.25032C0 1.21236 0.687 0.000395557 2.625 0.000395557H10.875C12.273 0.000395557 13.419 1.09836 13.4955 2.47681L16.155 0.261387C16.488 -0.0191041 16.956 -0.0791017 17.352 0.106892C17.748 0.291386 18 0.688873 18 1.12536V10.875C18 11.301 17.7585 11.691 17.3775 11.8815C17.2185 11.961 17.046 12 16.875 12Z" fill="white"/>
</svg>
