<svg width="14" height="14" viewBox="0 0 14 14" fill="none" xmlns="http://www.w3.org/2000/svg">
<path d="M11.9497 2.04489C10.6277 0.726233 8.86971 0 7 0C5.13029 0 3.37234 0.726233 2.05027 2.04489C0.728113 3.36362 0 5.11687 0 6.98188C0 8.45623 0.451172 9.8558 1.30729 11.0451L0.00922852 14L3.25544 12.8816C4.375 13.5903 5.6652 13.9637 7 13.9637C8.86971 13.9637 10.6277 13.2375 11.9497 11.9188C13.2719 10.6001 14 8.84673 14 6.98188C14 5.11704 13.2719 3.36362 11.9497 2.04489ZM11.1285 9.38027C10.4889 10.3235 10.4889 10.3235 10.4745 10.341C10.1188 10.7742 9.56331 10.9982 8.87006 10.9982C8.612 10.9982 8.33489 10.9672 8.0418 10.9043C7.05674 10.6932 5.98136 10.1416 5.01365 9.35114C4.04602 8.56047 3.29193 7.61763 2.89041 6.69589C2.45017 5.68502 2.47675 4.80054 2.96552 4.20538C2.9797 4.18829 2.9797 4.18829 3.81514 3.33944L4.14899 3.00021L5.99349 5.44636L5.34237 6.23933C5.65964 6.67786 6.03451 7.14561 6.50747 7.53201C6.98043 7.91849 7.51406 8.19287 8.00762 8.41675L8.6637 7.61797L11.3891 8.99601L11.1285 9.38027Z" fill="#F8F8FA"/>
</svg>
